<svg width="21" height="20" viewBox="0 0 21 20" fill="none" xmlns="http://www.w3.org/2000/svg">
<g clip-path="url(#clip0_6_383)">
<path d="M19.5203 3.3975C19.2859 3.1162 18.9924 2.88996 18.6607 2.73485C18.329 2.57973 17.9673 2.49955 17.6011 2.5H4.12777L4.09277 2.2075C4.02115 1.59951 3.72893 1.03894 3.27151 0.632065C2.8141 0.225186 2.2233 0.000284828 1.61111 0L1.42611 0C1.20509 0 0.993131 0.0877974 0.836851 0.244078C0.680571 0.400358 0.592773 0.61232 0.592773 0.833333C0.592773 1.05435 0.680571 1.26631 0.836851 1.42259C0.993131 1.57887 1.20509 1.66667 1.42611 1.66667H1.61111C1.81522 1.66669 2.01222 1.74163 2.16475 1.87726C2.31728 2.0129 2.41473 2.19979 2.43861 2.4025L3.58527 12.1525C3.70432 13.1665 4.1915 14.1015 4.95436 14.78C5.71722 15.4585 6.70265 15.8334 7.72361 15.8333H16.4261C16.6471 15.8333 16.8591 15.7455 17.0154 15.5893C17.1716 15.433 17.2594 15.221 17.2594 15C17.2594 14.779 17.1716 14.567 17.0154 14.4107C16.8591 14.2545 16.6471 14.1667 16.4261 14.1667H7.72361C7.20782 14.1652 6.70511 14.0043 6.28439 13.7059C5.86367 13.4075 5.54553 12.9863 5.37361 12.5H15.3069C16.2838 12.5001 17.2297 12.1569 17.9793 11.5304C18.7289 10.9039 19.2345 10.0339 19.4078 9.0725L20.0619 5.44417C20.1272 5.08417 20.1126 4.71422 20.019 4.36053C19.9253 4.00684 19.7551 3.67806 19.5203 3.3975ZM18.4261 5.14833L17.7711 8.77667C17.667 9.35417 17.3632 9.87666 16.9127 10.2527C16.4622 10.6287 15.8937 10.8342 15.3069 10.8333H5.10861L4.32444 4.16667H17.6011C17.7235 4.16594 17.8446 4.19218 17.9557 4.24355C18.0668 4.29491 18.1653 4.37012 18.244 4.46384C18.3228 4.55756 18.3799 4.66748 18.4114 4.78578C18.4429 4.90409 18.4479 5.02787 18.4261 5.14833Z" fill="black"/>
<path d="M6.42618 20.0005C7.34666 20.0005 8.09285 19.2543 8.09285 18.3339C8.09285 17.4134 7.34666 16.6672 6.42618 16.6672C5.50571 16.6672 4.75952 17.4134 4.75952 18.3339C4.75952 19.2543 5.50571 20.0005 6.42618 20.0005Z" fill="black"/>
<path d="M14.7594 20.0005C15.6799 20.0005 16.4261 19.2543 16.4261 18.3339C16.4261 17.4134 15.6799 16.6672 14.7594 16.6672C13.839 16.6672 13.0928 17.4134 13.0928 18.3339C13.0928 19.2543 13.839 20.0005 14.7594 20.0005Z" fill="black"/>
</g>
<defs>
<clipPath id="clip0_6_383">
<rect width="20" height="20" fill="white" transform="translate(0.592773)"/>
</clipPath>
</defs>
</svg>
