<svg width="16" height="17" viewBox="0 0 16 17" fill="none" xmlns="http://www.w3.org/2000/svg">
<g clip-path="url(#clip0_20_1061)">
<path d="M8 0.600098C3.58176 0.600098 0 4.18186 0 8.6001C0 12.3518 2.58304 15.4999 6.06752 16.3646V11.0449H4.41792V8.6001H6.06752V7.54666C6.06752 4.82378 7.29984 3.5617 9.97312 3.5617C10.48 3.5617 11.3546 3.66122 11.7123 3.76042V5.97642C11.5235 5.95658 11.1955 5.94666 10.7882 5.94666C9.47648 5.94666 8.9696 6.44362 8.9696 7.73546V8.6001H11.5827L11.1338 11.0449H8.9696V16.5415C12.9309 16.0631 16.0003 12.6903 16.0003 8.6001C16 4.18186 12.4182 0.600098 8 0.600098Z" fill="black"/>
</g>
<defs>
<clipPath id="clip0_20_1061">
<rect width="16" height="16" fill="white" transform="translate(0 0.600098)"/>
</clipPath>
</defs>
</svg>
