<svg width="80" height="80" viewBox="0 0 80 80" fill="none" xmlns="http://www.w3.org/2000/svg">
<g clip-path="url(#clip0_85_1087)">
<path d="M1.59116 50.8449C2.20772 50.381 2.94615 50.1419 3.71284 50.0036C0.447044 39.0031 3.4307 25.8998 3.49312 14.6623C3.49818 13.7645 4.22944 13.0505 5.11926 13.0357C10.9386 12.9392 16.7503 12.5862 22.562 12.2298C22.6029 12.0645 22.629 11.8962 22.6708 11.7314C22.7952 11.2451 23.6002 11.3358 23.5589 11.8515C23.5501 11.9578 23.5425 12.0645 23.5336 12.1708C32.0055 11.6525 40.4762 11.1595 48.9637 11.4859C50.0041 11.526 50.5607 12.401 50.4005 13.3718C48.4471 25.185 50.6539 36.9653 50.4528 48.8219C51.5855 48.2475 52.9573 47.9439 54.5848 48.0236C54.608 48.0249 54.6227 48.0358 54.6455 48.0375C54.8732 47.9245 55.095 47.8385 55.3194 47.7432C55.2751 47.6318 55.206 47.5272 55.1663 47.4151C54.9719 46.8664 55.7264 46.4869 56.108 46.8668C56.2472 47.0052 56.364 47.1675 56.496 47.3139C61.2593 45.8792 65.0324 48.4048 66.9816 52.1716C67.7609 51.8553 68.682 51.5698 69.6405 51.3177C68.159 49.9985 69.261 46.3199 70.1407 44.9489C71.1701 43.3442 72.7925 42.7618 74.4954 42.8141C74.3334 41.5515 74.0087 40.283 73.3546 38.9609C71.6479 35.5108 68.6402 32.6676 65.9505 29.9846C64.3083 28.3466 62.64 26.4767 60.3914 25.7025C57.6431 24.7561 54.0542 25.2862 51.2127 25.2942C49.0999 25.3006 49.1003 22.0196 51.2127 22.0175C58.8011 22.0103 62.7619 22.2722 68.2257 27.7086C74.263 33.7151 80.7098 41.6869 76.1139 50.5008C76.0464 50.6303 75.9368 50.6838 75.8352 50.7513C78.5089 51.1637 80.45 52.7532 79.9094 56.5756C79.8516 56.9834 79.4358 57.2968 79.0744 57.4106C76.054 58.3642 71.8225 59.3729 68.4129 58.7956C68.2253 62.3591 66.4966 65.7961 62.7421 67.5918C56.4686 70.5931 49.5895 66.6437 47.254 60.5318C47.2266 60.4601 47.2156 60.3854 47.1895 60.3138C44.5006 60.2948 41.7455 59.8979 39.1186 59.7896C34.3018 59.5914 29.4297 59.7103 24.7435 60.8515C23.3746 63.4918 20.8232 65.4933 17.0037 65.7139C11.8474 66.012 8.43187 62.61 7.06001 58.4962C6.6733 58.6366 6.24694 58.7125 5.74426 58.7724C4.87889 58.877 3.95068 58.7125 3.14647 58.389C1.64093 57.7834 0.453369 56.5381 0.0987015 54.9335C-0.244995 53.3811 0.320526 51.8009 1.59116 50.8449ZM71.7466 46.4198C71.4396 47.2097 71.3692 48.0536 71.3751 48.8928C71.3806 49.6569 71.5526 50.3089 71.2498 50.955C72.4517 50.734 73.6798 50.5965 74.8251 50.6522C74.6641 50.5054 74.5405 50.3207 74.538 50.0753C74.516 48.0662 74.6877 46.2233 74.6282 44.4082C73.366 44.4517 72.302 44.991 71.7466 46.4198ZM68.2965 56.2914C69.7401 56.2602 71.2152 56.4006 72.6562 56.2939C74.3435 56.1687 76.0005 55.7925 77.6245 55.3227C77.552 51.2886 70.4186 52.622 67.5446 53.4056C67.9031 54.3361 68.1554 55.3042 68.2965 56.2914ZM65.1585 56.5136C64.1557 55.084 63.1254 53.6768 61.9927 52.3433C61.2256 51.44 60.3585 50.6703 59.4881 49.9032C59.1081 49.8341 58.7241 49.7888 58.3385 49.7674C58.9133 50.6564 59.4628 51.5656 60.0536 52.4141C61.6633 54.7277 63.3928 56.9581 65.1632 59.1515C65.2724 58.2752 65.2585 57.3807 65.1585 56.5136ZM64.8587 60.5934C63.1579 58.6762 61.5119 56.7157 59.9579 54.6766C58.7906 53.1454 57.4402 51.5483 56.3872 49.8412C56.2387 49.8598 56.0924 49.8623 55.9431 49.8855C55.7808 50.4337 55.3312 50.9132 54.5852 51.0026C54.532 51.009 54.4865 51.0225 54.4342 51.0292C56.1202 52.4276 57.5119 54.3878 58.8926 55.9751C60.6335 57.9762 62.4469 59.8672 64.5074 61.5081C64.644 61.211 64.7613 60.9055 64.8587 60.5934ZM64.0186 62.3962C61.9513 61.0471 60.1654 59.297 58.4734 57.5005C56.6141 55.5256 54.4895 53.5734 52.7925 51.4408C52.2337 51.6601 51.7829 51.9591 51.386 52.2952C53.4111 53.6249 55.1031 55.7617 56.6828 57.4933C58.6307 59.6285 60.5061 61.8324 62.3916 64.0228C63.0605 63.58 63.6057 63.0343 64.0186 62.3962ZM57.5524 65.1998C56.0851 63.9131 54.6416 62.5995 53.2226 61.2597C52.2602 60.3526 51.2047 59.4766 50.1968 58.5619C51.211 61.748 54.0302 64.8051 57.5524 65.1998ZM54.2461 60.2362C55.836 61.9197 57.4423 63.5829 59.1128 65.1838C59.9887 65.084 60.8409 64.8338 61.6317 64.4441C59.7723 62.7403 58.0407 60.9033 56.2927 59.0874C54.4405 57.1639 52.2189 55.4977 50.3659 53.581C50.0078 54.2532 49.8358 55.0187 49.7991 55.8225C51.4514 57.0615 52.8646 58.7736 54.2461 60.2362ZM40.0835 14.5881C37.4744 14.6442 34.4983 14.7213 31.4257 14.8221C31.8402 23.3733 31.5176 31.8423 31.5686 40.4036C31.588 43.6554 32.4639 48.9624 30.788 51.9886C32.9923 51.9081 35.2059 51.8929 37.3702 51.7727C37.5891 51.7605 37.8193 51.7398 38.0416 51.725L37.6705 51.251C37.2011 50.6518 37.603 49.4591 38.5143 49.8016C36.9228 49.2036 37.8594 44.202 37.9231 41.7898C38.0302 37.7421 37.4824 33.7126 37.9011 29.6725C38.3195 25.646 40.9822 18.9735 40.0835 14.5881ZM47.6525 51.4724C47.9302 51.0069 48.2597 50.5742 48.6347 50.1828C48.6284 50.1449 48.6098 50.1158 48.6069 50.0748C47.812 38.1942 45.9589 26.3447 47.3223 14.4704C45.9762 14.4818 43.9933 14.5096 41.6253 14.556C42.6168 17.5873 41.0826 22.7838 40.7621 25.0863C39.5943 33.4676 42.2351 43.3775 39.8651 51.3312C39.8339 51.4357 39.7538 51.518 39.6884 51.6078C42.3229 51.402 45.0695 51.1717 47.6525 51.4724ZM35.938 57.5279C39.3135 57.6135 43.1267 57.6578 46.6527 58.2596C46.3549 56.5562 46.4051 54.8483 46.8542 53.3267C43.7339 53.7594 40.4547 53.7674 37.3706 53.9994C33.6232 54.2819 29.6443 54.9107 25.8763 54.513C26.0067 55.7245 25.9468 56.9489 25.6987 58.1419C29.059 57.511 32.5031 57.441 35.938 57.5279ZM25.4668 52.4238C26.4831 52.2695 27.5138 52.1691 28.5512 52.097C28.531 52.0489 28.4833 52.0122 28.4728 51.9612L28.3678 51.4539C28.2902 51.0811 28.4711 50.707 28.7465 50.4658C28.6946 50.2815 28.7123 50.0306 28.8738 49.6405C29.0214 48.3361 29.0594 47.0165 29.1197 45.7058C29.215 43.6314 29.2386 41.5528 29.2643 39.4766C29.363 31.2999 29.953 23.033 30.4772 14.8533C28.0861 14.9343 25.657 15.0317 23.3029 15.1435C22.9031 20.2269 22.519 25.3124 22.2073 30.4013C21.9011 35.4113 22.3844 40.9375 21.239 45.8383C21.0227 46.7648 19.5555 46.785 19.3514 45.8383C18.3136 41.0049 19.5016 35.2645 19.9288 30.4013C20.3754 25.3204 20.9034 20.2172 21.9083 15.211C18.7037 15.3742 15.7057 15.5681 13.2268 15.7959C14.6834 19.9005 14.403 24.819 14.5493 29.0509C14.6636 32.3513 14.6855 35.6567 14.7682 38.9579C14.7964 40.1067 15.297 45.0775 14.5949 44.7528C14.8163 44.8552 14.9542 45.0189 15.0212 45.2061C15.5669 45.2145 16.135 45.255 16.7351 45.3444C17.2622 45.4229 17.5528 45.7775 17.6709 46.2001C21.8025 46.3658 24.4323 49.0745 25.4668 52.4238ZM22.8703 53.6198C21.7025 52.9792 20.6141 52.2243 19.5471 51.3775C18.3338 50.4156 17.0185 49.3584 15.8364 48.2328C15.6352 48.2071 15.4408 48.1632 15.2367 48.1472C15.2042 48.1446 15.1789 48.1286 15.1482 48.1231C15.1144 48.1248 15.0857 48.1333 15.052 48.1354C16.2687 49.3103 17.4119 50.599 18.6653 51.7132C20.116 53.0037 21.6059 54.2478 23.0769 55.5133C23.095 54.8276 23.0073 54.2069 22.8703 53.6198ZM22.8951 57.1513C21.1007 55.7246 19.297 54.311 17.5342 52.8447C15.9895 51.5597 14.2617 50.174 13.0202 48.5309C12.389 48.7433 11.801 49.0672 11.2844 49.4874C11.3451 49.4853 11.4041 49.4693 11.464 49.4895C13.3622 50.1305 15.0537 52.264 16.5424 53.5485C18.5261 55.2607 20.4939 57.0012 22.2693 58.928C22.5367 58.3646 22.7581 57.7729 22.8951 57.1513ZM21.3989 60.3057C21.3876 60.1861 21.3929 60.0655 21.4145 59.9473C19.677 58.2469 17.8429 56.6461 15.9604 55.1097C14.3389 53.786 11.4725 52.2838 10.7159 50.2368C10.6902 50.1676 10.7049 50.1002 10.71 50.0318C10.338 50.451 10.0559 50.9584 9.82607 51.5146C11.9477 52.6187 13.7603 54.6336 15.5686 56.1556C17.3824 57.6822 19.1971 59.2072 20.9843 60.7633C21.1255 60.6135 21.2637 60.461 21.3989 60.3057ZM16.361 62.5514C16.3724 62.5522 16.3825 62.5506 16.3943 62.5514C15.0858 61.5111 13.7511 60.5043 12.3914 59.5319C11.674 59.0182 10.9082 58.5105 10.1508 57.9871C11.3033 60.4331 13.5519 62.2984 16.361 62.5514ZM9.34615 54.9423C10.7408 55.9734 12.0363 57.2027 13.3693 58.2638C15.0284 59.5842 16.6339 60.9594 18.1744 62.4093C18.8084 62.2525 19.4105 61.9875 19.9545 61.6261C18.3671 60.3654 16.773 59.1132 15.1722 57.8695C13.3187 56.4323 10.9622 55.0106 9.37103 53.1736C9.31452 53.6114 9.29133 54.0774 9.30398 54.5725C9.30778 54.6973 9.33772 54.8179 9.34615 54.9423ZM7.1743 50.1271C8.16028 47.7503 10.0858 45.9201 13.0105 45.3777C11.0166 40.3656 12.3956 20.5246 11.9486 15.9224C8.75996 16.2585 6.70535 16.6621 6.69523 17.1437C6.47172 28.1683 5.18716 38.963 6.23808 49.9715C6.55395 50.0171 6.87446 50.0546 7.1743 50.1271ZM2.21658 54.5042C2.43291 55.4184 3.12159 56.1037 3.93298 56.5221C4.48289 56.8059 5.13571 56.8671 5.74299 56.8902C6.03946 56.9016 6.32833 56.8675 6.61932 56.8367C6.31189 55.2472 6.29501 53.6156 6.59148 52.0928C4.73339 51.8752 1.60213 51.9013 2.21658 54.5042Z" fill="black"/>
<path d="M54.2343 27.5909C54.2448 26.7209 55.1869 25.7953 56.1012 26.1685C58.861 27.294 61.2167 28.9889 63.4067 30.9946C65.013 32.4652 68.2442 35.3193 68.1523 37.7084C68.1257 38.3962 67.5268 38.9267 66.8833 38.8959C66.8217 38.9592 66.7623 39.0229 66.6632 39.0811C65.8606 39.5509 64.7106 39.6449 63.8132 39.7748C61.3246 40.1358 58.7812 40.1775 56.2716 40.2632C55.6694 40.2838 55.017 39.8153 54.8922 39.2131C54.1044 35.413 54.1875 31.4526 54.2343 27.5909ZM65.0649 37.3314L64.9202 37.1045C64.1957 35.9717 63.2747 34.9719 62.349 34.0032C60.8658 32.4504 59.1393 31.0128 57.2403 29.9416C57.2917 32.4449 57.3997 34.9406 57.6063 37.4385C59.1966 37.4836 60.7874 37.5157 62.3789 37.4853C63.2696 37.468 64.1759 37.4334 65.0649 37.3314Z" fill="black"/>
</g>
<defs>
<clipPath id="clip0_85_1087">
<rect width="80" height="80" fill="white" transform="matrix(-1 0 0 1 80 0)"/>
</clipPath>
</defs>
</svg>
