<svg width="50" height="79" viewBox="0 0 50 79" fill="none" xmlns="http://www.w3.org/2000/svg">
<g clip-path="url(#clip0_85_926)">
<path d="M1.3 75.9001C8.6 76.4001 15.9 76.9001 23.2 77.4001C26.9 77.7001 30.7 77.9001 34.4 78.2001C36.2 78.3001 38 78.5001 39.7 78.6001C41.1 78.7001 42.9 79.1001 44.2 78.4001C45.6 77.7001 45.7 76.1001 45.9 74.7001C46.2 72.8001 46.4 70.9001 46.6 69.0001C47 65.5001 47.3 62.0001 47.5 58.5001C48 51.3001 48.3 44.2001 48.8 37.0001C49.3 29.7001 50 22.3001 50 15.0001C50 14.2001 49.6 13.6001 48.7 13.5001C37.2 12.4001 25.7 11.7001 14.3 10.8001C13 10.7001 11.7 10.6001 10.4 10.5001C9.1 10.4001 7.6 10.1001 6.3 10.2001C5 10.2001 3.8 10.7001 3.4 11.9001C2.9 13.2001 2.8 14.7001 2.7 16.0001C2 21.6001 1.8 27.3001 1.5 33.0001C1 40.3001 0.7 47.6001 0.5 54.9001C0.3 61.4001 0.1 67.9001 0 74.4001C0 76.3001 2.7 76.3001 2.7 74.5001C2.9 62.0001 3.3 49.5001 3.9 37.0001C4.2 30.9001 4.5 24.9001 5 18.8001C5.2 17.1001 5.3 15.3001 5.6 13.6001C5.5 14.0001 5.7 13.3001 5.7 13.2001C5.7 13.0001 6 12.5001 5.7 13.0001C5.8 12.8001 5.6 13.2001 5.6 13.2001C5.8 13.4001 6.7 13.2001 7 13.2001C8.3 13.3001 9.7 13.5001 11 13.6001C23.5 14.7001 36 15.4001 48.5 16.6001C48.1 16.1001 47.7 15.6001 47.2 15.1001C47.2 21.2001 46.7 27.2001 46.3 33.3001C45.8 40.2001 45.4 47.0001 45 53.9001C44.6 60.7001 44.1 67.6001 43.1 74.4001C43.1 74.7001 43 75.0001 43 75.3001C43 75.5001 43 75.6001 42.9 75.8001C42.8 76.1001 42.8 76.2001 42.9 76.0001C42.5 76.2001 41.2 75.9001 40.7 75.9001C38.9 75.8001 37.1 75.6001 35.4 75.5001C31.9 75.3001 28.4 75.0001 24.9 74.8001C17.2 74.1001 9.3 73.5001 1.5 73.0001C-0.3 72.8001 -0.5 75.8001 1.3 75.9001Z" fill="black"/>
<path d="M24.3 56.1C19.6 50.7 16.3 44 14.9 36.9C14.5 35 13.4 29.6 16.7 29.6C19.3 29.6 20 31.8 20.7 33.8C21.3 35.6 21.9 37.5 22.3 39.4C22.6 40.8 24.7 40.9 25 39.5C25.7 36.5 26.9 33.5 29.2 31.4C29.7 30.9 30.5 30.4 31 30.3C33.2 30.2 32.9 33.4 32.8 34.9C32 43.1 26.7 50 22 56.3C20.9 57.8 23.2 59.4 24.4 57.9C28.9 51.8 33.7 45.4 35.3 37.8C36 34.6 36.8 29.6 33.1 27.8C30.9 26.7 28.8 27.9 27.2 29.5C24.7 31.9 23.2 35.3 22.4 38.7C23.3 38.7 24.2 38.8 25.1 38.8C24.7 36.8 24 34.7 23.3 32.7C22.3 29.9 21 27.4 17.7 26.8C13.7 26.1 11.5 29.9 11.6 33.4C11.7 37.5 12.9 41.8 14.5 45.7C16.3 50.3 18.9 54.5 22.2 58.2C23.4 59.5 25.5 57.5 24.3 56.1Z" fill="black"/>
<path d="M5.7 13.1C18.3 9.80004 30.8 5.90004 43.5 2.90004C43 2.40004 42.5 2.00004 42 1.50004C42 5.90004 41.7 10.2 41.1 14.6C40.8 16.5 43.4 16.3 43.6 14.6C44.2 10.3 44.5 5.90004 44.5 1.50004C44.5 0.600036 44 -0.0999644 43 0.100036C30.4 3.10004 17.9 7.00004 5.3 10.3C3.7 10.7 4 13.5 5.7 13.1Z" fill="black"/>
<path d="M17.4 41C19.2 44.5 21 48 22.9 51.5C23.5 52.6 24.9 51.4 24.4 50.5C22.6 47 20.8 43.5 18.9 40C18.3 38.9 16.9 40.1 17.4 41Z" fill="black"/>
<path d="M31.9 71.4001C34.7 71.8001 37.6 71.7001 40.4 71.1001C40.9 71.0001 41.2 70.4001 41.1 69.9001C40.7 67.8001 40.6 65.7001 40.8 63.6001C40.9 62.3001 39 62.3001 38.9 63.5001C38.7 65.8001 38.8 68.0001 39.2 70.3001C39.4 69.9001 39.7 69.5001 39.9 69.1001C37.3 69.6001 34.6 69.7001 31.9 69.3001C31.4 69.2001 30.9 69.8001 30.9 70.2001C31 70.9001 31.4 71.3001 31.9 71.4001Z" fill="black"/>
<path d="M36.3 20.2001C37.4 20.2001 38.6 20.2001 39.7 20.2001C40.3 20.2001 40.9 20.2001 41.4 20.2001C41.6 20.2001 41.8 20.2001 42 20.2001C42.2 20.2001 42 20.2001 42.1 20.2001C42.1 20.2001 42.4 20.3001 42.2 20.2001C42.3 20.3001 42.3 20.3001 42.3 20.2001V20.1001C42.3 20.3001 42.3 20.6001 42.3 20.8001C42.2 21.4001 42.2 21.9001 42.1 22.5001C42 23.7001 41.9 24.8001 41.8 26.0001C41.8 26.5001 42.2 27.0001 42.7 27.0001C43.2 27.0001 43.6 26.6001 43.7 26.0001C43.8 24.7001 43.9 23.4001 44.1 22.1001C44.2 20.9001 44.6 19.4001 43.5 18.5001C42.6 17.8001 41.3 18.0001 40.3 18.0001C39 18.0001 37.7 18.0001 36.4 18.0001C35.2 18.2001 35.1 20.2001 36.3 20.2001Z" fill="black"/>
<path d="M5.89999 62.7C5.89999 63.8 5.89999 65 5.89999 66.1C5.89999 66.6 5.89999 67.2 5.89999 67.7C5.89999 68.2 5.89999 68.7 6.19999 69.1C6.79999 70.1 7.99999 69.8 8.99999 69.6C10.1 69.4 11.2 69.3 12.4 69.1C12.9 69 13.2 68.6 13.2 68.1C13.2 67.7 13.1 67.1 12.6 67.2C11.6 67.3 10.6 67.5 9.59999 67.6C9.09999 67.7 8.59999 67.7 8.19999 67.8C7.99999 67.8 7.89999 67.8 7.69999 67.8C7.59999 67.8 7.49999 67.7 7.39999 67.7C7.39999 67.8 7.29999 67.5 7.39999 67.6V67.4C7.39999 67.2 7.39999 66.9 7.39999 66.7C7.39999 66.2 7.39999 65.7 7.39999 65.2C7.39999 64.2 7.39999 63.1 7.39999 62.1C7.39999 61.7 6.99999 61.3 6.59999 61.5C6.09999 61.7 5.89999 62.2 5.89999 62.7Z" fill="black"/>
<path d="M8.4 22.7C8.6 20.9 8.8 19.1 9 17.3C8.7 17.6 8.4 17.9 8 18.3C9.9 18.4 11.8 18.5 13.6 18.6C14.8 18.7 14.9 16.7 13.7 16.7C11.8 16.6 9.9 16.5 8.1 16.4C7.6 16.4 7.2 16.9 7.1 17.4C6.9 19.2 6.7 21 6.5 22.8C6.4 23.3 6.8 23.8 7.3 23.8C8 23.7 8.4 23.2 8.4 22.7Z" fill="black"/>
</g>
<defs>
<clipPath id="clip0_85_926">
<rect width="50" height="78.8" fill="white"/>
</clipPath>
</defs>
</svg>
