<svg width="55" height="90" viewBox="0 0 55 90" fill="none" xmlns="http://www.w3.org/2000/svg">
<g clip-path="url(#clip0_85_1024)">
<path d="M43.0346 34.5566C43.0346 34.7264 43.0346 34.8962 43.0346 35.1509C43.0346 35.3208 43.0346 35.4906 43.1195 35.5755C43.1195 35.7453 43.2044 35.8302 43.2893 36C43.3742 36.0849 43.4591 36.2547 43.6289 36.2547C43.7988 36.3396 43.8837 36.3396 44.0535 36.3396C44.1384 36.3396 44.2233 36.3396 44.3082 36.3396C44.478 36.2547 44.6478 36.1698 44.8176 36C44.9025 35.9151 44.9874 35.8302 44.9874 35.7453C45.0723 35.5755 45.1572 35.3208 45.1572 35.1509C45.1572 34.9811 45.1572 34.8113 45.1572 34.5566C45.1572 34.3868 45.1572 34.217 45.0723 34.1321C45.0723 33.9623 44.9874 33.8774 44.9025 33.7075C44.8176 33.6226 44.7327 33.4528 44.5629 33.4528C44.3931 33.3679 44.3082 33.3679 44.1384 33.3679C44.0535 33.3679 43.9686 33.3679 43.8837 33.3679C43.7139 33.4528 43.544 33.5377 43.3742 33.7075C43.2893 33.7924 43.2044 33.8774 43.2044 33.9623C43.1195 34.1321 43.0346 34.3868 43.0346 34.5566Z" fill="black"/>
<path d="M40.9968 68.2642C40.827 68.2642 40.6572 68.2642 40.4025 68.2642C40.2327 68.2642 40.1478 68.3491 40.0629 68.3491C39.893 68.434 39.8081 68.5189 39.7232 68.6038C39.6383 68.6887 39.5534 68.8585 39.4685 69.0283C39.3836 69.1981 39.3836 69.3679 39.2987 69.5377C39.2987 69.6227 39.2987 69.7076 39.2987 69.8774C39.2987 70.0472 39.3836 70.217 39.4685 70.3868C39.5534 70.4717 39.5534 70.4717 39.6383 70.5566C39.8081 70.6415 39.893 70.7264 40.0629 70.7264C40.2327 70.7264 40.4025 70.7264 40.6572 70.7264C40.827 70.7264 40.9119 70.6415 40.9968 70.6415C41.1666 70.5566 41.2515 70.4717 41.3364 70.3868C41.4213 70.3019 41.5063 70.1321 41.5912 69.9623C41.6761 69.7925 41.6761 69.6227 41.761 69.4528C41.761 69.3679 41.761 69.283 41.761 69.1132C41.761 68.9434 41.6761 68.7736 41.5912 68.6038C41.5063 68.5189 41.5063 68.5189 41.4213 68.434C41.2515 68.3491 41.1666 68.2642 40.9968 68.2642Z" fill="black"/>
<path d="M39.044 57.8209C39.044 57.9058 39.044 58.0756 39.044 58.1605C39.044 59.7737 41.4214 59.7737 41.4214 58.2454C41.4214 58.1605 41.4214 57.9907 41.4214 57.9058C41.4214 56.2926 39.044 56.2926 39.044 57.8209C39.044 57.9058 39.044 58.0756 39.044 58.1605C39.044 59.7737 41.4214 59.7737 41.4214 58.2454C41.4214 58.1605 41.4214 57.9907 41.4214 57.9058C41.4214 56.2926 39.044 56.2926 39.044 57.8209Z" fill="black"/>
<path d="M41.8459 50.2641C43.1195 50.2641 43.4591 47.8019 42.1006 47.8019C40.7421 47.8019 40.4025 50.2641 41.8459 50.2641Z" fill="black"/>
<path d="M12.9779 41.434C19.4308 41.2642 25.9685 41.1792 32.4213 41.0094C35.7327 40.9245 39.044 40.8396 42.3553 40.8396C42.7798 40.8396 43.4591 40.7547 43.7987 41.0943C44.2232 41.434 44.2232 42.0283 44.2232 42.5377C44.3081 44.1509 44.2232 45.7642 44.2232 47.3774C44.2232 53.9151 44.1383 60.4528 44.1383 66.9057C44.1383 73.4434 43.9685 79.9811 44.0534 86.434C44.0534 86.6038 44.0534 86.8585 44.0534 87.0283C44.0534 87.283 44.1383 86.6887 44.0534 87.0283C44.0534 86.7736 44.2232 86.6038 44.3081 86.434C44.1383 86.6038 44.5628 86.1792 44.393 86.3491C43.7138 86.6038 43.4591 86.6038 42.8647 86.6887C41.761 86.8585 40.5723 86.8585 39.4685 86.9434C34.6289 87.1981 29.7044 87.1981 24.8647 87.3679C21.8081 87.4528 18.5817 87.7076 15.61 87.0283C14.8459 86.8585 14.3364 86.6887 14.0817 85.9245C13.827 85.2453 13.7421 84.4811 13.5723 83.717C13.3176 82.1887 13.1478 80.5755 13.0628 79.0472C12.7232 72.5943 13.2327 66.0566 13.4874 59.6038C13.7421 53.1509 13.9968 46.6132 14.2515 40.1604C14.3364 38.5472 12.1289 38.6321 12.1289 40.1604C11.7893 52.4717 10.7704 64.8679 10.9402 77.1792C10.9402 80.4057 11.11 83.717 12.044 86.8585C12.4685 88.217 13.3176 88.9811 14.6761 89.3208C16.2044 89.6604 17.9025 89.8302 19.5157 89.9151C22.827 90 26.2232 89.7453 29.5345 89.6604C32.1666 89.5755 34.7138 89.4906 37.3459 89.4057C39.6383 89.3208 42.1855 89.4057 44.4779 88.8113C45.6666 88.4717 46.3459 87.7076 46.3459 86.434C46.3459 86.0094 46.3459 86.1792 46.3459 86.434C46.3459 84.9057 46.3459 83.3774 46.3459 81.8491C46.3459 78.283 46.3459 74.8019 46.4308 71.2359C46.4308 64.2736 46.5157 57.3962 46.5157 50.434C46.5157 48.6509 46.5157 46.8679 46.5157 45C46.5157 43.6415 46.6855 42.1132 46.3459 40.7547C45.5817 37.6132 41.8459 38.3774 39.3836 38.4623C32.4213 38.6321 25.4591 38.717 18.4968 38.8868C16.7987 38.8868 15.0157 38.9717 13.3176 38.9717C11.8742 39.0566 11.5345 41.5189 12.9779 41.434Z" fill="black"/>
<path d="M13.1478 38.9717C11.4497 38.8019 9.92137 39.3113 8.30817 39.2264C8.64779 39.6509 9.07232 40.0755 9.41194 40.5C9.49685 37.3585 9.32703 34.217 9.41194 31.0755C8.98741 31.5 8.56288 31.8396 8.13835 32.2641C21.7233 33.4528 35.3082 31.2453 48.8931 32.6038C48.5534 32.2641 48.1289 31.9245 47.7893 31.6698C47.9591 34.3868 48.2138 37.1038 48.3836 39.8208C48.7233 39.3113 48.978 38.8019 49.3176 38.2924C47.1101 38.5472 44.6478 38.717 42.4402 38.3774C40.9119 38.1226 40.7421 40.6698 42.2704 40.8396C44.6478 41.1792 47.3648 41.0094 49.7421 40.6698C50.4214 40.5849 50.761 39.7358 50.6761 39.1415C50.5063 36.4245 50.2516 33.7075 50.0817 30.9906C50.0817 30.3962 49.4874 30.0566 48.978 30.0566C35.3931 28.6981 21.8082 30.9057 8.22326 29.717C7.62892 29.717 7.03458 30.3962 7.03458 30.9906C6.94968 34.1321 7.11949 37.2736 7.03458 40.4151C7.03458 41.0943 7.45911 41.6887 8.13835 41.6887C9.75156 41.7736 11.3648 41.2641 12.978 41.434C14.5063 41.6887 14.6761 39.1415 13.1478 38.9717Z" fill="black"/>
<path d="M27.7516 28.3587C24.695 28.3587 21.6384 27.4247 18.7516 26.4907C16.0346 25.5568 13.7421 24.3681 11.4497 22.5851C7.28932 19.3587 3.46856 14.9436 2.78932 9.5945C2.5346 8.0662 2.61951 6.70771 2.87422 5.26431C2.87422 5.26431 2.87422 5.34922 2.87422 5.0945C2.87422 5.00959 2.95913 4.92469 2.95913 4.83978C3.04403 4.66997 3.12894 4.50016 3.21385 4.24544C3.29875 3.99072 3.21385 4.24544 3.21385 4.33035C3.29875 4.07563 3.38366 3.82091 3.63837 3.6511C4.0629 3.22657 4.65724 2.88695 5.16668 2.71714C7.79875 1.86808 10.9403 2.88695 13.0629 4.58506C15.6101 6.6228 17.8176 9.16997 19.6006 11.887C23.2516 17.4058 25.6289 23.7737 26.7327 30.3115C26.8176 30.9058 27.4969 30.9907 27.8365 30.6511C28.3459 30.3115 28.5157 29.5473 28.3459 28.953C27.2421 22.67 25.0346 16.5568 21.6384 11.1228C19.7704 8.1511 17.5629 5.34922 14.8459 2.97186C12.4686 0.934121 9.41196 -0.339464 6.18554 0.0850643C2.02517 0.679404 0.836487 4.66997 0.836487 8.49072C0.836487 13.8398 3.72328 18.6794 7.37422 22.2454C10.0063 24.7926 12.978 27.0002 16.3742 28.2737C19.8554 29.6322 23.5912 30.736 27.3271 30.8209C28.5157 30.8209 29.0252 28.4436 27.7516 28.3587Z" fill="black"/>
<path d="M28.4308 30.8208C29.1101 26.0661 30.4686 21.2265 32.6761 16.9812C34.7987 12.7359 38.3648 8.66042 43.1195 7.38683C45.4969 6.70759 47.9591 7.04721 49.9119 8.49061C51.6101 9.76419 53.0535 11.8868 52.7138 14.0944C52.2893 16.4717 49.827 18.1699 47.8742 19.2736C45.5818 20.6321 43.3742 22.0755 41.1667 23.5189C38.7893 25.0472 36.412 26.5755 33.8648 27.7642C31.9969 28.6982 29.9591 29.6321 27.8365 29.6321C26.7327 29.6321 26.3082 32.0944 27.4969 32.0944C29.7044 32.0944 31.827 31.1604 33.7799 30.2265C36.327 29.0378 38.7044 27.5095 41.0818 25.9812C43.6289 24.368 46.0912 22.7548 48.6384 21.2265C51.0157 19.7831 53.3931 17.8302 54.2421 15.1132C55.8553 9.934 51.4403 4.75476 46.261 4.58495C40.6572 4.41513 35.6478 8.83023 32.8459 13.3302C29.5346 18.5095 27.6667 24.8774 26.8176 30.9906C26.7327 31.5 26.9874 32.1793 27.5818 32.1793C28.0063 32.0944 28.4308 31.3302 28.4308 30.8208Z" fill="black"/>
<path d="M27.7516 28.3585C25.7987 28.2736 23.8459 27.3396 22.1478 26.4057C20.1101 25.217 18.327 23.6887 16.7138 21.9906C15.3553 20.6321 13.9968 19.0189 13.2327 17.2358C13.1478 16.9811 12.978 16.6415 12.8931 16.3868C12.8931 16.3019 12.8931 16.217 12.8082 16.1321C12.7233 15.7924 12.8082 16.3019 12.8082 15.9623C12.8082 15.8774 12.8082 15.3679 12.8082 15.7075C12.8082 15.6226 12.8082 15.1981 12.8082 15.4528C12.8082 15.7075 12.8082 15.3679 12.8082 15.3679C12.8931 15.3679 12.6384 15.6226 12.8082 15.4528C12.978 15.1981 12.7233 15.5377 12.8082 15.5377C12.8931 15.4528 12.8931 15.3679 12.978 15.283C13.0629 15.1132 13.1478 14.9434 13.2327 14.7736C13.3176 14.5189 13.0629 15.1132 13.1478 14.9434C13.1478 14.8585 13.2327 14.8585 13.2327 14.7736C13.3176 14.6038 12.978 15.1132 13.1478 14.8585C13.3176 14.6887 12.8931 15.1132 13.0629 14.9434C13.2327 14.7736 12.8082 15.0283 12.978 14.9434C12.8931 14.9434 13.2327 14.8585 12.978 14.9434C13.0629 14.9434 13.1478 14.9434 13.2327 14.9434C12.978 14.9434 13.1478 14.9434 13.3176 14.9434C13.4025 15.0283 13.5723 15.0283 13.6572 15.1132C13.7421 15.1132 13.7421 15.1981 13.827 15.1981C14.0818 15.283 13.7421 15.1132 13.9119 15.283C14.761 15.7924 15.5251 16.4717 16.2893 17.2358C20.2799 21.2264 23.5063 25.9811 26.7327 30.6509C27.4968 31.7547 28.8553 29.717 28.261 28.8679C25.1195 24.283 21.8082 19.6132 17.9874 15.5377C16.8836 14.434 15.1855 12.4811 13.4025 12.566C12.8931 12.566 12.3836 12.9057 12.044 13.3302C11.7893 13.6698 11.7044 14.0943 11.4497 14.434C11.3648 14.6038 11.6195 14.0094 11.5346 14.2641C11.8742 13.6698 11.5346 14.2641 11.4497 14.434C11.3648 14.6887 11.195 14.8585 11.1101 15.1132C10.8553 15.9623 10.8553 16.8113 11.0251 17.5755C11.4497 19.4434 12.7233 21.2264 13.9119 22.6698C15.695 24.7924 17.8176 26.7453 20.195 28.2736C22.3176 29.6321 24.695 30.8208 27.2421 30.9057C28.5157 30.9057 29.0251 28.4434 27.7516 28.3585Z" fill="black"/>
<path d="M29.4497 30.4812C31.4025 28.019 32.5063 24.9624 33.8648 22.1605C34.9686 19.9529 35.9875 17.4058 38.5346 16.7265C39.3837 16.4718 40.3176 16.5567 41.0818 16.9812C40.912 16.8963 41.1667 17.0661 41.2516 17.0661C41.3365 17.151 41.4214 17.151 41.4214 17.2359C41.5063 17.2359 41.5912 17.4907 41.5063 17.3209C41.5912 17.4058 41.5912 17.4907 41.6761 17.5756C41.5912 17.4058 41.761 18.0001 41.761 17.7454V17.9152C41.761 17.9152 41.761 17.6605 41.761 17.8303C41.761 17.9152 41.761 17.9152 41.761 18.0001C41.761 18.3397 41.8459 17.8303 41.761 18.0001C41.761 18.085 41.6761 18.1699 41.6761 18.3397C41.5912 18.5095 41.761 18.1699 41.6761 18.3397C41.6761 18.4246 41.5912 18.4246 41.5912 18.5095C41.4214 18.7642 41.3365 18.9341 41.0818 19.1888C40.6573 19.6982 40.1478 20.1227 39.7233 20.5473C38.7893 21.3963 37.9403 22.3303 37.0063 23.1793C35.7327 24.368 34.3742 25.4718 32.9308 26.4907C31.8271 27.2548 30.4686 28.1039 29.1101 28.3586C28.5158 28.4435 28.0912 29.0378 28.0063 29.6322C27.9214 30.0567 28.1761 30.9058 28.7705 30.8209C31.912 30.2265 34.629 27.9341 37.0063 25.8114C38.195 24.7926 39.2988 23.6888 40.4875 22.585C41.5912 21.5661 42.695 20.5473 43.2893 19.1039C43.7988 18.0001 43.8837 16.5567 43.1195 15.5378C42.4403 14.6039 41.3365 14.2643 40.2327 14.1793C38.9592 14.0944 37.6856 14.519 36.5818 15.1982C35.3082 16.0473 34.3742 17.3209 33.6101 18.6793C32.5912 20.3775 31.8271 22.2454 30.978 24.0284C30.2139 25.6416 29.3648 27.4246 28.3459 28.7831C28.0063 29.2076 27.7516 29.9718 28.0912 30.4812C28.4308 30.9907 29.1101 30.9058 29.4497 30.4812Z" fill="black"/>
<path d="M22.1478 30.9907C22.6572 46.2737 21.978 61.6416 21.978 77.0096C21.978 80.9152 21.978 84.8209 22.1478 88.7265C22.2327 90.3397 24.5251 90.3397 24.5251 88.8114C24.0157 73.868 24.6949 58.8397 24.6949 43.8114C24.6949 39.5662 24.6949 35.3209 24.5251 31.0756C24.4402 29.4624 22.0629 29.4624 22.1478 30.9907Z" fill="black"/>
<path d="M33.0157 31.4152C33.4402 46.7831 33.0157 62.0661 32.9308 77.434C32.9308 81.2548 32.8459 84.9906 32.9308 88.8114C32.9308 89.4057 33.5251 89.8302 34.0346 89.6604C34.7138 89.4906 34.8836 88.7265 34.8836 88.1321C34.7987 73.1887 35.2233 58.2453 35.2233 43.3869C35.2233 39.1416 35.1383 34.9812 35.0534 30.7359C35.0534 30.1416 34.4591 29.717 33.9497 29.8869C33.2704 30.0567 33.0157 30.8208 33.0157 31.4152Z" fill="black"/>
<path d="M16.4591 57.9057C16.4591 58.0755 16.4591 58.2453 16.4591 58.5001C16.4591 58.6699 16.4591 58.8397 16.544 58.9246C16.544 59.0944 16.6289 59.1793 16.7138 59.3491C16.7987 59.434 16.8836 59.5189 17.0534 59.6038C17.1384 59.6887 17.3082 59.6887 17.478 59.6887C17.5629 59.6887 17.6478 59.6887 17.7327 59.6887C17.9025 59.6038 18.0723 59.5189 18.2421 59.3491C18.327 59.2642 18.4119 59.1793 18.4119 59.0944C18.4968 58.9246 18.5817 58.6699 18.5817 58.5001C18.5817 58.3302 18.5817 58.1604 18.5817 57.9057C18.5817 57.7359 18.5817 57.5661 18.4968 57.4812C18.4968 57.3114 18.4119 57.2265 18.327 57.0567C18.2421 56.9718 18.1572 56.8869 17.9874 56.8019C17.9025 56.717 17.7327 56.717 17.5629 56.717C17.478 56.717 17.3931 56.717 17.3082 56.717C17.1384 56.8019 16.9685 56.8868 16.7987 57.0567C16.7138 57.1416 16.6289 57.2265 16.6289 57.3114C16.544 57.4812 16.4591 57.651 16.4591 57.9057Z" fill="black"/>
<path d="M16.3742 71.9151C16.544 71.9151 16.7138 71.9151 16.9686 71.9151C17.1384 71.9151 17.3082 71.9151 17.3931 71.8302C17.5629 71.7453 17.6478 71.7453 17.8176 71.5755C17.9025 71.4906 18.0723 71.3208 18.0723 71.151C18.1572 70.9812 18.2421 70.8114 18.2421 70.6416C18.2421 70.5566 18.2421 70.3868 18.2421 70.3019C18.2421 70.1321 18.1572 69.8774 17.9874 69.7076C17.8176 69.7076 17.7327 69.6227 17.6478 69.6227C17.478 69.5378 17.3082 69.4529 17.0535 69.4529C16.8837 69.4529 16.7138 69.4529 16.4591 69.4529C16.2893 69.4529 16.1195 69.4529 16.0346 69.5378C15.8648 69.6227 15.7799 69.6227 15.6101 69.7925C15.5252 69.8774 15.3554 70.0472 15.3554 70.217C15.2704 70.3019 15.2704 70.4717 15.2704 70.6416C15.2704 70.7265 15.2704 70.8963 15.2704 70.9812C15.2704 71.151 15.3554 71.4057 15.5252 71.5755C15.6101 71.6604 15.695 71.7453 15.7799 71.7453C15.9497 71.8302 16.1195 71.8302 16.3742 71.9151Z" fill="black"/>
<path d="M37.3459 77.8585C37.261 77.9435 37.261 78.1133 37.1761 78.1982C37.1761 78.1982 37.0912 78.4529 37.0912 78.5378C37.0912 78.7925 37.0912 78.9623 37.1761 79.1321C37.1761 79.217 37.261 79.3019 37.3459 79.3869C37.3459 79.3869 37.5157 79.5567 37.4308 79.4718L37.5157 79.5567C37.6006 79.5567 37.6855 79.6416 37.7704 79.7265C37.8553 79.7265 37.9402 79.7265 38.0251 79.7265C38.0251 79.7265 38.0251 79.7265 38.1101 79.7265H38.195C38.2799 79.7265 38.3648 79.7265 38.4497 79.6416L38.5346 79.5567L38.6195 79.4718C38.6195 79.4718 38.7893 79.3019 38.8742 79.3019L39.044 79.0472C39.1289 78.9623 39.1289 78.8774 39.2138 78.7076C39.2138 78.6227 39.2987 78.4529 39.2987 78.368C39.2987 78.2831 39.2987 78.1982 39.2987 78.1982C39.2987 78.1982 39.2987 78.1133 39.2987 78.0284C39.2987 77.9435 39.2987 77.8585 39.2138 77.6887C39.2138 77.6038 39.1289 77.5189 39.044 77.434C38.9591 77.3491 38.8742 77.2642 38.7893 77.1793C38.7044 77.0944 38.5346 77.0944 38.4497 77.0944C38.2799 77.0944 38.195 77.1793 38.1101 77.1793C37.9402 77.2642 37.8553 77.3491 37.7704 77.434C37.6855 77.5189 37.6855 77.6038 37.6006 77.6887C37.5157 77.8585 37.4308 78.1133 37.4308 78.2831C37.4308 78.368 37.4308 78.4529 37.4308 78.6227C37.4308 78.7925 37.5157 78.9623 37.6006 79.1321C37.6006 79.0472 37.5157 78.9623 37.5157 78.8774C37.5157 78.7925 37.5157 78.7076 37.4308 78.6227C37.4308 78.5378 37.4308 78.4529 37.4308 78.2831C37.4308 78.1982 37.5157 78.0284 37.5157 77.9435C37.6006 77.8586 37.6006 77.7736 37.6855 77.6038C37.7704 77.5189 37.7704 77.434 37.8553 77.3491C37.9402 77.2642 38.0251 77.1793 38.1101 77.1793C38.195 77.0944 38.2799 77.0944 38.3648 77.0095H38.2799C38.3648 77.0095 38.4497 77.0095 38.5346 76.9246C38.4497 76.9246 38.4497 76.9246 38.3648 76.9246C38.4497 76.9246 38.5346 76.9246 38.6195 76.9246H38.5346C38.6195 76.9246 38.7044 77.0095 38.7893 77.0095C38.8742 77.0944 38.8742 77.0944 38.9591 77.1793C38.9591 77.2642 39.044 77.3491 39.044 77.434C39.044 77.5189 39.044 77.6038 39.1289 77.6887C39.1289 77.7736 39.1289 77.8585 39.1289 78.0284C39.1289 78.1133 39.044 78.2831 39.044 78.368C38.9591 78.4529 38.9591 78.5378 38.8742 78.7076C38.9591 78.5378 39.044 78.368 39.044 78.1982C39.1289 78.0284 39.1289 77.8585 39.044 77.6887C39.044 77.5189 38.9591 77.434 38.9591 77.2642C38.8742 77.1793 38.8742 77.0095 38.7044 76.9246C38.6195 76.9246 38.5346 76.8397 38.4497 76.8397C38.2799 76.7548 38.1101 76.7548 37.9402 76.8397C37.8553 76.9246 37.7704 76.9246 37.6855 77.0095C37.6006 77.5189 37.5157 77.6887 37.3459 77.8585Z" fill="black"/>
<path d="M17.9874 47.2925C18.1572 47.4623 18.327 47.6321 18.5817 47.8868C18.6666 47.9717 18.8364 48.0566 18.9214 48.0566C19.0912 48.0566 19.1761 48.0566 19.3459 48.0566C19.5157 47.9717 19.6006 47.9717 19.6855 47.8019C19.7704 47.717 19.9402 47.6321 20.0251 47.4623C20.11 47.3774 20.11 47.2925 20.1949 47.1226C20.2798 46.9528 20.2798 46.6981 20.2798 46.4434C20.2798 46.3585 20.1949 46.2736 20.1949 46.1887C20.11 46.0189 20.0251 45.8491 19.8553 45.7642C19.6855 45.5943 19.5157 45.4245 19.261 45.1698C19.1761 45.0849 19.0063 45 18.9214 45C18.7515 45 18.6666 45 18.4968 45C18.327 45.0849 18.2421 45.0849 18.1572 45.2547C18.0723 45.3396 17.9025 45.4245 17.8176 45.5943C17.7327 45.6792 17.7327 45.7641 17.6478 45.934C17.5629 46.1038 17.5629 46.3585 17.5629 46.6132C17.5629 46.6981 17.6478 46.783 17.6478 46.8679C17.7327 47.0377 17.9025 47.2075 17.9874 47.2925Z" fill="black"/>
<path d="M19.8553 61.2171C19.8553 61.3869 19.8553 61.5567 19.8553 61.8114C19.8553 61.9812 19.8553 62.151 19.8553 62.2359C19.8553 62.4057 19.9403 62.4907 20.0252 62.6605C20.1101 62.7454 20.195 62.8303 20.3648 62.9152C20.4497 63.0001 20.6195 63.0001 20.7044 63.0001C20.7893 63.0001 20.8742 63.0001 20.9591 62.9152C21.1289 62.8303 21.2987 62.7454 21.4686 62.5756C21.5535 62.4906 21.5535 62.4057 21.6384 62.3208C21.7233 62.151 21.8082 61.8963 21.8082 61.7265C21.8082 61.5567 21.8082 61.3869 21.8082 61.1322C21.8082 60.9624 21.8082 60.7925 21.8082 60.7076C21.8082 60.5378 21.7233 60.4529 21.6384 60.2831C21.5535 60.1982 21.4686 60.1133 21.2987 60.0284C21.2138 59.9435 21.044 59.9435 20.9591 59.9435C20.8742 59.9435 20.7893 59.9435 20.7044 60.0284C20.5346 60.1133 20.3648 60.1982 20.195 60.368C20.1101 60.4529 20.1101 60.5378 20.0252 60.6227C19.9403 60.7925 19.8553 61.0473 19.8553 61.2171Z" fill="black"/>
<path d="M17.9874 78.368C17.9874 78.2831 17.9874 78.1133 17.9874 78.0284C17.9874 76.4152 15.9496 76.585 15.9496 78.1133C15.9496 78.1982 15.9496 78.368 15.9496 78.4529C15.9496 80.0662 17.9874 79.8114 17.9874 78.368C17.9874 78.2831 17.9874 78.1133 17.9874 78.0284C17.9874 76.4152 15.9496 76.585 15.9496 78.1133C15.9496 78.1982 15.9496 78.368 15.9496 78.4529C15.9496 80.0662 17.9874 79.8114 17.9874 78.368Z" fill="black"/>
<path d="M16.7987 35.8302C16.9685 35.8302 17.1383 35.8302 17.393 35.8302C17.5629 35.8302 17.6478 35.8302 17.7327 35.7453C17.9025 35.6604 17.9874 35.5755 18.0723 35.4906C18.1572 35.4057 18.2421 35.2358 18.327 35.066C18.4119 34.8962 18.4119 34.7264 18.4968 34.5566C18.4968 34.4717 18.4968 34.3868 18.4968 34.217C18.4968 34.0472 18.4119 33.8774 18.327 33.7075C18.2421 33.6226 18.2421 33.6226 18.1572 33.5377C17.9874 33.4528 17.8176 33.3679 17.6478 33.3679C17.4779 33.3679 17.3081 33.3679 17.0534 33.3679C16.8836 33.3679 16.7987 33.3679 16.7138 33.4528C16.544 33.5377 16.4591 33.6226 16.3742 33.7075C16.2893 33.7924 16.2044 33.9623 16.1195 34.1321C16.0346 34.3019 16.0346 34.4717 15.9496 34.6415C15.9496 34.7264 15.9496 34.8113 15.9496 34.9811C15.9496 35.1509 16.0346 35.3208 16.1195 35.4906C16.2044 35.5755 16.2044 35.5755 16.2893 35.6604C16.544 35.7453 16.6289 35.8302 16.7987 35.8302Z" fill="black"/>
<path d="M11.4497 38.2076C11.8742 38.1227 12.2138 37.9529 12.6384 37.868C12.8082 37.7831 12.8931 37.7831 12.978 37.6133C13.0629 37.5284 13.2327 37.3585 13.2327 37.2736C13.3176 37.1038 13.4025 36.934 13.4025 36.7642C13.4874 36.5944 13.4874 36.4246 13.4025 36.2548C13.4025 36.0001 13.3176 35.6604 13.0629 35.5755C12.978 35.5755 12.8931 35.4906 12.8082 35.4906C12.6384 35.4057 12.4685 35.4906 12.2987 35.4906C11.8742 35.5755 11.5346 35.7453 11.1101 35.8302C10.9402 35.9151 10.8553 35.9151 10.7704 36.085C10.6855 36.1699 10.5157 36.3397 10.5157 36.4246C10.4308 36.5944 10.3459 36.7642 10.3459 36.934C10.261 37.1038 10.261 37.2736 10.3459 37.4434C10.3459 37.6982 10.4308 38.0378 10.6855 38.1227C10.7704 38.1227 10.8553 38.2076 10.9402 38.2076C11.1101 38.2925 11.2799 38.2925 11.4497 38.2076Z" fill="black"/>
<path d="M26.8176 41.519C26.9025 48.1416 26.9025 54.8491 26.9874 61.4718C26.9874 61.8963 27.327 62.151 27.6666 61.9812C28.0912 61.8963 28.261 61.302 28.261 60.9624C28.1761 54.3397 28.1761 47.6322 28.0911 41.0095C28.0911 40.585 27.7515 40.3303 27.4119 40.5001C26.9874 40.585 26.8176 41.0944 26.8176 41.519Z" fill="black"/>
<path d="M26.7327 67.3303C27.0723 69.7077 27.0723 72.085 26.9025 74.5473C26.9025 74.9718 27.1572 75.3963 27.5818 75.3963C28.0063 75.3963 28.3459 74.9718 28.4308 74.5473C28.6006 72.0001 28.5157 69.4529 28.261 66.9058C28.1761 66.4812 27.7516 66.2265 27.4119 66.3114C26.9025 66.3963 26.6478 66.9058 26.7327 67.3303Z" fill="black"/>
<path d="M26.5629 79.7265C26.5629 80.4906 26.5629 81.1699 26.5629 81.934C26.5629 82.1039 26.5629 82.3586 26.7327 82.5284C26.8176 82.6982 27.0723 82.7831 27.2421 82.7831C27.6666 82.7831 28.0063 82.3586 28.0063 81.934C28.0063 81.1699 28.0063 80.4906 28.0063 79.7265C28.0063 79.5567 28.0063 79.302 27.8365 79.1322C27.7515 78.9623 27.4968 78.8774 27.327 78.8774C26.9874 78.8774 26.5629 79.2171 26.5629 79.7265Z" fill="black"/>
</g>
<defs>
<clipPath id="clip0_85_1024">
<rect width="53.6604" height="90" fill="white" transform="translate(0.836487)"/>
</clipPath>
</defs>
</svg>
