<svg width="137" height="83" viewBox="0 0 137 83" fill="none" xmlns="http://www.w3.org/2000/svg">
<g clip-path="url(#clip0_85_1010)">
<path d="M68.3833 29.6001C67.1833 28.6001 65.8833 27.7001 64.5833 26.9001C63.3833 26.2001 61.8833 25.1001 60.4833 24.9001C59.9833 24.8001 59.4833 24.9001 59.0833 25.2001C58.6833 25.5001 58.6833 26.0001 58.2833 26.3001C56.8833 27.6001 55.8833 25.1001 55.7833 24.1001C55.6833 23.7001 55.2833 23.4001 54.9833 23.3001C51.5833 22.2001 48.3833 20.9001 45.1833 19.4001C43.6833 18.7001 42.1833 17.9001 40.6833 17.1001C39.3833 16.4001 38.0833 15.6001 36.6833 15.1001C36.8833 12.5001 37.7833 10.2001 38.8833 7.80006C39.7833 5.80006 40.1833 3.40006 38.5833 1.60006C37.2833 0.200061 35.0833 -0.39994 33.2833 0.200061C31.1833 0.900061 29.9833 2.70006 29.5833 4.90006C29.4833 5.60006 30.3833 6.10006 30.7833 5.40006C31.4833 4.10006 32.7833 2.60006 34.2833 2.30006C36.0833 2.00006 37.6833 3.30006 37.3833 5.10006C37.0833 6.90006 35.8833 8.50006 35.2833 10.2001C34.6833 11.8001 34.4833 13.5001 34.3833 15.2001C31.3833 16.2001 28.4833 17.2001 25.5833 18.4001C22.6833 19.6001 19.3833 20.7001 16.6833 22.4001C16.1833 22.7001 15.6833 23.1001 15.3833 23.6001C14.9833 24.1001 14.7833 24.9001 14.0833 25.2001C13.4833 25.5001 12.6833 25.3001 11.9833 25.3001C11.3833 25.3001 10.7833 25.3001 10.1833 25.4001C7.58335 25.7001 5.08335 26.8001 3.38335 28.8001C2.58335 29.7001 3.58335 30.9001 4.38335 30.8001C9.38335 31.9001 14.7833 32.0001 19.9833 32.3001C25.2833 32.6001 30.5833 32.8001 35.9833 32.9001C46.4833 33.0001 57.0833 32.7001 67.7833 32.2001C68.5834 32.2001 68.8833 31.3001 68.6833 30.7001C68.8833 30.3001 68.7833 29.9001 68.3833 29.6001ZM36.0833 31.0001C30.8833 30.9001 25.5833 30.7001 20.3833 30.5001C15.4833 30.3001 10.5833 29.6001 5.68335 29.7001C7.38335 28.2001 9.58335 27.7001 11.7833 27.7001C12.9833 27.7001 14.1833 27.9001 15.2833 27.2001C16.3833 26.6001 16.5833 25.2001 17.6833 24.5001C18.8833 23.7001 20.2833 23.2001 21.5833 22.6001C23.1833 21.9001 24.6833 21.3001 26.2833 20.6001C29.3833 19.4001 32.5833 18.3001 35.6833 17.2001C35.9833 17.1001 36.2833 16.8001 36.4833 16.5001C37.3833 17.4001 38.5833 18.1001 39.5833 18.7001C41.1833 19.7001 42.7833 20.6001 44.3833 21.4001C47.3833 22.9001 50.4833 24.1001 53.5833 25.2001C53.9833 26.8001 54.9833 28.4001 56.6833 28.8001C57.4833 29.0001 58.2833 28.9001 58.9833 28.5001C59.2833 28.3001 59.5833 28.1001 59.8833 27.7001C60.0833 27.5001 60.1833 27.2001 60.2833 26.9001C60.7833 27.1001 61.3833 27.5001 61.7833 27.7001C62.3833 28.0001 63.0833 28.4001 63.6833 28.8001C64.3833 29.2001 64.9833 29.7001 65.5833 30.1001C55.7833 31.0001 45.9833 31.1001 36.0833 31.0001Z" fill="black"/>
<path d="M135.883 40.0001C135.283 33.6001 134.483 27.1001 133.083 20.9001C132.483 18.3001 130.383 17.8001 127.983 17.7001C124.983 17.6001 121.883 18.0001 118.983 18.9001C118.583 19.0001 118.383 19.2001 118.283 19.5001C116.683 19.6001 114.983 19.9001 113.383 20.1001C111.583 20.3001 109.683 20.4001 107.883 20.4001C104.083 20.5001 100.383 20.5001 96.5833 20.6001C96.3833 20.6001 96.1833 20.7001 96.0833 20.8001C91.6833 20.0001 87.0833 20.2001 82.6833 20.8001C81.9833 20.9001 81.4833 21.3001 81.3833 22.1001C80.9833 33.8001 80.4833 45.4001 80.4833 57.1001C80.4833 60.0001 80.5833 63.0001 80.5833 65.9001C80.6833 68.0001 80.7833 70.3001 82.8833 71.5001C84.9833 72.7001 87.8833 72.9001 90.1833 73.1001C92.9833 73.3001 95.7833 73.3001 98.5833 73.4001C104.483 73.6001 110.283 73.6001 116.183 73.4001C118.983 73.3001 121.883 73.1001 124.683 72.8001C125.983 72.7001 127.283 72.5001 128.583 72.3001C129.683 72.1001 130.983 72.0001 131.883 71.4001C133.683 70.2001 133.783 67.3001 134.283 65.3001C134.883 62.6001 135.283 59.8001 135.583 57.0001C136.383 51.4001 136.383 45.7001 135.883 40.0001ZM107.783 22.6001C109.683 22.5001 111.583 22.4001 113.483 22.2001C115.183 22.1001 116.883 21.9001 118.483 21.6001C118.483 21.9001 118.383 22.2001 118.283 22.5001C118.083 23.1001 117.683 23.7001 117.283 24.3001C116.483 25.3001 115.483 26.3001 114.383 27.0001C112.283 28.4001 109.783 29.2001 107.283 29.1001C104.783 29.0001 102.383 28.0001 100.483 26.5001C99.4833 25.7001 98.6833 24.8001 97.8833 23.7001C97.4833 23.2001 97.1833 22.7001 96.8833 22.1001C100.583 22.7001 104.183 22.8001 107.783 22.6001ZM95.1833 22.3001C95.2833 23.4001 95.8833 24.6001 96.4833 25.4001C97.2833 26.7001 98.4833 27.8001 99.6833 28.8001C102.183 30.6001 105.183 31.7001 108.283 31.6001C111.383 31.5001 114.383 30.3001 116.783 28.3001C118.483 26.9001 121.583 23.5001 120.583 21.0001C121.283 20.8001 122.083 20.7001 122.783 20.6001C122.783 20.8001 122.783 21.0001 122.783 21.1001C122.783 21.6001 122.683 22.1001 122.683 22.6001C122.583 23.4001 122.383 24.2001 122.083 25.0001C121.483 26.7001 120.583 28.4001 119.383 29.7001C116.783 32.7001 113.083 34.3001 109.083 34.5001C101.283 34.8001 95.6833 29.4001 92.6833 22.7001C93.5833 22.5001 94.3833 22.4001 95.1833 22.3001ZM133.683 54.2001C133.483 56.9001 133.283 59.5001 132.883 62.2001C132.583 64.4001 132.583 66.9001 131.883 69.1001C131.383 70.6001 129.783 70.5001 128.483 70.7001C127.083 70.8001 125.683 70.9001 124.283 71.0001C121.683 71.2001 119.183 71.3001 116.583 71.3001C111.383 71.4001 106.283 71.3001 101.083 71.1001C96.0833 70.9001 90.6833 71.2001 85.6833 70.0001C84.6833 69.8001 83.6833 69.5001 83.2833 68.4001C82.8833 67.3001 83.0833 66.0001 82.9833 64.9001C82.8833 62.3001 82.8833 59.7001 82.8833 57.1001C82.7833 45.8001 82.9833 34.5001 83.7833 23.3001C86.2833 23.1001 88.7833 23.0001 91.2833 22.7001C92.3833 29.2001 97.7833 34.6001 104.183 36.1001C111.383 37.9001 119.183 34.9001 122.883 28.4001C123.883 26.7001 124.583 24.9001 124.883 23.0001C124.983 22.2001 125.183 21.1001 125.083 20.1001C125.583 20.1001 126.183 20.0001 126.683 20.0001C127.683 20.0001 129.083 19.8001 129.983 20.2001C130.983 20.7001 130.983 22.3001 131.083 23.3001C131.983 28.4001 132.883 33.6001 133.383 38.8001C133.883 44.0001 133.983 49.1001 133.683 54.2001Z" fill="black"/>
<path d="M128.383 65.6001C121.583 66.3001 114.683 66.6001 107.783 66.6001C104.383 66.6001 101.083 66.4001 97.6833 66.3001C94.1833 66.1001 90.6833 65.7001 87.1833 65.7001C86.3833 65.7001 86.1833 66.9001 86.9833 67.1001C93.5833 68.7001 100.683 68.8001 107.483 68.9001C114.483 69.0001 121.383 68.6001 128.383 67.9001C129.783 67.6001 129.783 65.4001 128.383 65.6001Z" fill="black"/>
<path d="M87.7833 28.1001C87.7833 27.6001 87.6833 27.1001 87.5833 26.7001C87.4833 26.2001 87.3833 25.8 87.1833 25.3C86.9833 24.9 86.1833 25.0001 86.1833 25.4001C86.0833 26.3001 86.0833 27.2001 86.0833 28.1001C86.0833 28.5001 86.0833 29.0001 85.9833 29.4001C85.9833 29.6 85.9833 29.9001 85.9833 30.1001C85.9833 30.2001 85.9833 30.3001 85.9833 30.4001C85.9833 30.6 86.0833 30.8001 86.1833 31.0001C86.4833 31.6001 87.2833 31.5001 87.5833 31.0001C87.8833 30.6001 87.8833 29.9001 87.8833 29.4001C87.8833 29.0001 87.8833 28.6001 87.7833 28.1001Z" fill="black"/>
<path d="M87.9834 33.3001C87.9834 33.2001 87.8834 33.2001 87.8834 33.1001C87.7834 33.0001 87.7834 32.9001 87.6834 32.9001C87.5834 32.8001 87.5834 32.8001 87.4834 32.8001C87.3834 32.7001 87.2834 32.7001 87.1834 32.7001C87.0834 32.7001 86.9834 32.7001 86.9834 32.7001C86.8834 32.7001 86.8834 32.8001 86.7834 32.8001C86.6834 32.9001 86.5834 32.9001 86.5834 33.0001C86.4834 33.1001 86.4834 33.2001 86.3834 33.3001C86.3834 33.4001 86.3834 33.5001 86.3834 33.5001C86.3834 33.6001 86.3834 33.7001 86.3834 33.7001C86.3834 33.7001 86.3834 33.7001 86.3834 33.8001V33.9001C86.3834 34.0001 86.4834 34.0001 86.4834 34.1001C86.5834 34.2001 86.5834 34.3001 86.6834 34.3001C86.7834 34.4001 86.7834 34.4001 86.8834 34.4001C86.9834 34.5001 87.0834 34.5001 87.1834 34.5001C87.2834 34.5001 87.2834 34.5001 87.3834 34.5001C87.4834 34.5001 87.4834 34.4001 87.5834 34.4001C87.6834 34.3001 87.7834 34.3001 87.7834 34.2001C87.8834 34.1001 87.8834 34.0001 87.8834 33.9001V33.8001C87.8834 33.8001 87.8834 33.8001 87.8834 33.7001C88.0834 33.6001 88.0834 33.6001 87.9834 33.3001Z" fill="black"/>
<path d="M31.1834 39.8001C29.4834 39.8001 27.9834 40.7001 26.7834 41.8001C23.8834 44.3001 22.4834 48.0001 21.9834 51.7001C21.8834 52.7001 21.7834 53.8001 21.7834 54.8001C21.7834 55.7001 21.6834 56.8001 21.8834 57.7001C21.9834 58.3001 22.4834 58.9001 23.0834 59.2001C23.1834 59.4001 23.1834 59.6001 23.3834 59.7001C22.2834 64.1001 21.8834 68.7001 22.3834 73.2001C22.5834 75.4001 22.9834 77.6001 24.2834 79.4001C25.4834 81.0001 27.3834 82.2001 29.4834 82.0001C33.8834 81.7001 36.7834 77.3001 37.7834 73.4001C38.3834 71.1001 38.4834 68.7001 38.3834 66.4001C38.3834 65.2001 38.1834 64.1001 38.0834 62.9001C38.3834 62.7001 38.6834 62.5001 38.7834 62.0001C39.5834 58.3001 39.3834 54.3001 38.9834 50.6001C38.6834 47.3001 38.1834 43.5001 35.4834 41.2001C34.1834 40.4001 32.7834 39.7001 31.1834 39.8001ZM35.6834 62.6001C35.7834 63.6001 35.7834 64.7001 35.7834 65.7001C35.7834 67.6001 35.7834 69.5001 35.4834 71.4001C34.8834 74.5001 33.3834 78.4001 30.0834 79.4001C25.9834 80.7001 24.8834 75.3001 24.5834 72.5001C24.1834 68.4001 24.3834 64.1001 25.0834 60.0001C28.0834 59.1001 31.2834 59.2001 34.1834 60.5001C35.1834 61.0001 35.5834 61.4001 35.6834 62.6001ZM36.1834 59.0001C34.6834 57.9001 32.5834 57.3001 30.9834 57.0001C28.6834 56.6001 26.3834 56.7001 24.1834 57.4001C24.0834 56.9001 24.1834 56.0001 24.1834 55.8001C24.1834 54.8001 24.2834 53.9001 24.3834 52.9001C24.6834 52.8001 24.8834 52.7001 25.0834 52.6001C25.6834 52.4001 26.1834 52.2001 26.7834 52.0001C27.9834 51.7001 28.9834 51.5001 30.2834 51.5001C31.4834 51.5001 32.4834 51.7001 33.6834 52.1001L33.9834 52.2001C34.0834 52.2001 34.1834 52.3001 34.2834 52.3001C34.5834 52.4001 34.8834 52.6001 35.0834 52.7001C35.3834 52.8001 35.5834 53.0001 35.8834 53.1001C35.9834 53.2001 36.0834 53.2001 36.1834 53.3001C36.2834 55.3001 36.2834 57.1001 36.1834 59.0001ZM35.9834 50.1001C35.3834 49.8001 34.7834 49.6001 34.1834 49.5001C32.7834 49.1001 31.3834 48.9001 29.9834 49.1001C28.5834 49.2001 27.0834 49.5001 25.6834 50.1001C25.2834 50.3001 24.9834 50.5001 24.5834 50.7001C24.7834 49.7001 25.0834 48.7001 25.4834 47.8001C26.4834 45.4001 29.3834 41.4001 32.4834 42.9001C35.1834 44.2001 35.6834 47.3001 35.9834 50.1001Z" fill="black"/>
<path d="M9.98335 40.3C8.28335 40.3 6.78335 41.2 5.58335 42.3C2.68335 44.8 1.28335 48.5001 0.78335 52.2001C0.68335 53.2001 0.58335 54.3 0.58335 55.3C0.58335 56.2 0.48335 57.3001 0.68335 58.2001C0.78335 58.8001 1.28335 59.4001 1.88335 59.7001C1.98335 59.9001 1.98335 60.1 2.18335 60.2001C1.08335 64.6 0.68335 69.2 1.18335 73.7C1.38335 75.9 1.78335 78.1001 3.08335 79.9001C4.28335 81.5 6.18335 82.7001 8.28335 82.5C12.6833 82.2001 15.5833 77.8001 16.5833 73.9001C17.1833 71.6001 17.2833 69.2001 17.1833 66.9001C17.1833 65.7001 16.9833 64.6001 16.8833 63.4001C17.1833 63.2001 17.4833 63 17.5833 62.5C18.3833 58.8 18.1833 54.8 17.7833 51.1C17.4833 47.8 16.9834 44.0001 14.2833 41.7001C13.0834 40.9001 11.5834 40.3 9.98335 40.3ZM14.4833 63.1C14.5834 64.1 14.5834 65.2 14.5834 66.2C14.5834 68.1 14.5834 70.0001 14.2833 71.9001C13.6833 75 12.1833 78.9001 8.88335 79.9001C4.78335 81.2001 3.68335 75.8 3.38335 73C2.98335 68.9 3.18335 64.6 3.88335 60.5C6.88335 59.6 10.0833 59.7001 12.9833 61C13.9833 61.5 14.3833 62 14.4833 63.1ZM14.9833 59.6C13.4833 58.5 11.3834 57.9 9.78335 57.6C7.48335 57.2 5.18335 57.3 2.98335 58C2.88335 57.5 2.98335 56.6001 2.98335 56.4001C2.98335 55.4001 3.08335 54.5 3.18335 53.5C3.48335 53.4 3.68335 53.3001 3.88335 53.2001C4.38335 53.0001 4.88335 52.8 5.48335 52.6C6.68335 52.3 7.68335 52.1 8.98335 52.1C10.1833 52.1 11.1833 52.3001 12.3833 52.7001L12.6833 52.8C12.7833 52.8 12.8833 52.9001 12.9833 52.9001C13.2833 53.0001 13.5834 53.2 13.7833 53.3C14.0834 53.4 14.2833 53.6 14.5834 53.7001C14.6834 53.8001 14.7833 53.8001 14.8833 53.9001C15.0833 55.8001 15.0834 57.7 14.9833 59.6ZM14.7833 50.6C14.1833 50.3 13.5834 50.1 12.9833 50C11.5834 49.6 10.1833 49.4 8.78335 49.6C7.38335 49.7 5.88335 50 4.48335 50.6C4.08335 50.8 3.78335 51.0001 3.48335 51.2001C3.68335 50.2001 3.98335 49.2 4.38335 48.3C5.38335 45.9 8.28335 41.9001 11.3833 43.4001C13.9833 44.7001 14.4833 47.9 14.7833 50.6Z" fill="black"/>
<path d="M71.3834 52.7C71.2833 48.9 71.0833 45 70.0833 41.3C69.9833 40.8 69.4833 40.5 68.9833 40.5C67.4833 40.4 66.0833 40.5 64.6833 40.7C60.7833 40.5 56.7833 40.9 52.9833 41C52.5833 41 52.0833 41.3 51.9833 41.7C51.0833 47.8 53.5834 54.6 50.8833 60.5C49.6833 63.2 47.2833 64.3 45.4833 66.4C43.7833 68.3 43.3833 70.7 44.2833 73.1C46.5833 78.8 53.6833 78.6 58.2833 76.1C60.8833 74.6 63.2833 72.5 65.3834 70.4C67.3834 68.4 69.5833 66 70.6833 63.3C71.3833 61.7 71.3834 60 71.3834 58.3C71.3834 56.4 71.3834 54.6 71.3834 52.7ZM67.9833 42.7C68.1833 44.1 68.3833 45.5 68.4833 46.9C67.8833 46.8 67.2833 46.9 66.6833 46.9C66.5833 46.9 66.5833 46.9 66.4833 46.9C66.4833 46.7 66.4833 46.6 66.4833 46.4C66.4833 45.9 66.3834 45.5 66.3834 45C66.3834 44.5 66.3834 44.1 66.3834 43.6C66.3834 43.4 66.3834 43.2 66.3834 43C66.3834 42.9 66.3834 42.8 66.2834 42.7C66.9834 42.6 67.4833 42.6 67.9833 42.7ZM63.4833 42.6C63.6833 42.8 63.8834 42.9 64.1833 42.9C64.4833 42.9 64.7833 42.8 65.0833 42.8C65.0833 42.8 65.0833 42.8 65.0833 42.9C64.9833 43.1 64.9833 43.4 64.9833 43.6C64.8833 44.1 64.8834 44.6 64.7834 45C64.7834 45.5 64.6833 45.9 64.6833 46.4C64.6833 46.6 64.6833 46.8 64.6833 47L62.2833 47.1C62.0833 45.6 61.9833 44.2 61.9833 42.7C62.5833 42.6 63.0833 42.6 63.4833 42.6ZM60.6833 42.8C60.4833 44.3 60.4833 45.8 60.6833 47.2C59.7833 47.3 58.8833 47.3 57.9833 47.4C57.9833 47.2 57.9833 47 57.9833 46.8C57.9833 46.3 57.9833 45.8 57.9833 45.3C57.9833 44.5 57.8833 43.7 57.8833 42.9C58.7833 42.9 59.6833 42.8 60.6833 42.8ZM53.7833 43C54.5833 43 55.4833 43 56.2833 42.9C56.1833 43.7 56.1833 44.5 56.1833 45.2C56.1833 45.7 56.1833 46.2 56.1833 46.7C56.1833 46.9 56.1833 47.2 56.1833 47.5C55.3833 47.6 54.5833 47.7 53.7833 47.8C53.6833 46.2 53.6833 44.6 53.7833 43ZM52.0833 75.4C49.4833 75.5 46.7833 74.4 45.9833 71.7C45.2833 69.3 46.9833 67.7 48.6833 66.3C50.7833 66.8 52.5833 67.9 53.9833 69.5C54.6833 70.3 55.2833 71.3 55.6833 72.3C55.8833 72.8 56.0833 73.3 56.2833 73.7C56.2833 73.8 56.3833 73.9 56.3833 74.1C55.0833 74.8 53.5833 75.3 52.0833 75.4ZM58.0833 73.2C57.8833 72.5 57.5833 71.9 57.2833 71.3C56.6833 70.1 55.9833 69 55.0833 68.1C53.6833 66.6 51.6833 65.5 49.5833 65.4C51.0833 64 52.2833 62.5 52.9833 60.5C54.3833 56.8 53.9833 52.9 53.7833 49C56.0833 49.2 58.4833 49.1 60.7833 49C62.0833 48.9 63.4834 48.9 64.7834 48.8C65.4834 48.8 66.1833 48.7 66.9833 48.7C67.5833 48.7 68.0833 48.7 68.5833 48.5C68.6833 50.1 68.7834 51.7 68.7834 53.4C65.0834 53.5 62.0833 56.6 60.7833 59.9C59.4833 63.1 59.5833 67.3 61.5833 70.3C60.7833 71 59.9833 71.7 59.1833 72.3C58.8833 72.6 58.4833 72.9 58.0833 73.2ZM67.7834 63.5C66.9834 64.7 66.0833 65.8 65.1833 66.9C64.5833 67.6 63.8834 68.3 63.1833 69C61.9833 66.5 61.6833 63.8 62.5833 61.1C63.4833 58.3 65.9834 55.7 68.8834 55.1C68.8834 56.6 68.8834 58.1 68.7834 59.6C68.7834 61 68.5834 62.2 67.7834 63.5Z" fill="black"/>
<path d="M75.2834 56.6C75.1834 52.8 74.9833 48.9 73.9833 45.2C73.8833 44.7 73.3834 44.4 72.8834 44.4C71.9834 44.3 71.0833 44.4 70.1833 44.4C70.3833 45.1 70.5834 45.8 70.7834 46.5C71.1834 46.5 71.4834 46.5 71.8834 46.5C72.0834 47.9 72.2833 49.3 72.3834 50.7C72.0834 50.6 71.7833 50.6 71.4833 50.6C71.5833 51.3 71.5833 51.9 71.6833 52.6C71.9833 52.6 72.2833 52.5 72.5833 52.4C72.6833 54 72.7834 55.6 72.7834 57.3C72.2834 57.3 71.8833 57.4 71.4833 57.5C71.3833 58.2 71.2833 58.8 71.0833 59.5C71.5833 59.2 72.1834 59 72.7834 58.9C72.7834 60.4 72.7833 61.9 72.6833 63.4C72.6833 64.9 72.3833 66.1 71.5833 67.3C70.7833 68.5 69.8833 69.6 68.9833 70.7C68.3833 71.4 67.6833 72.1 66.9833 72.8C66.3833 71.5 65.9834 70.2 65.8834 68.8C65.2833 69.4 64.6833 70 64.0833 70.6C64.2833 71.9 64.7833 73.2 65.4833 74.2C64.6833 74.9 63.8833 75.6 63.0833 76.2C62.6833 76.5 62.2833 76.7 61.8834 77C61.6834 76.4 61.3833 75.8 61.0833 75.2C60.7833 74.6 60.4833 74.1 60.1833 73.6C59.6833 73.9 59.1833 74.2 58.5833 74.5C58.8833 75 59.1833 75.6 59.4833 76.2C59.6833 76.7 59.8833 77.2 60.0833 77.6C60.0833 77.7 60.1833 77.8 60.1833 78C58.7833 78.7 57.3834 79.2 55.8834 79.2C53.6834 79.3 51.4833 78.5 50.2833 76.6C49.3833 76.5 48.4833 76.1 47.6833 75.7C47.7833 76.1 47.8833 76.5 47.9833 76.9C50.2833 82.6 57.3833 82.4 61.9833 79.9C64.5833 78.4 66.9833 76.3 69.0833 74.2C71.0833 72.2 73.2833 69.8 74.3834 67.1C75.0834 65.5 75.0833 63.8 75.0833 62.1C75.2833 60.3 75.2834 58.5 75.2834 56.6Z" fill="black"/>
<path d="M133.283 69.9C133.583 68.5 131.383 67.9 131.183 69.3C130.883 70.9 131.183 72.4 131.383 74C131.683 76 131.583 77.8 129.283 78.3C124.783 79.4 119.983 79.5 115.383 79.6C110.683 79.7 105.983 79.7 101.383 79.5C99.0833 79.4 96.7833 79.3 94.4833 79.2C92.2833 79.1 89.9833 79.1 87.6833 78.8C82.9833 78.2 84.8833 72.8 83.2833 69.7C83.0833 69.3 82.3833 69.5 82.4833 69.9C82.4833 73.1 81.5833 77.6 84.4833 79.8C86.0833 81.1 88.2833 81 90.2833 81.2C92.9833 81.4 95.7833 81.5 98.4833 81.7C103.783 81.9 109.083 82.1 114.383 81.9C117.083 81.8 119.883 81.6 122.583 81.3C124.983 81 127.583 80.9 129.983 80.3C131.983 79.8 133.483 78.5 133.783 76.4C133.783 74.2 132.883 72.1 133.283 69.9Z" fill="black"/>
<path d="M126.983 74.4C125.483 74.1 123.783 74.4 122.283 74.5C120.583 74.6 118.883 74.7 117.183 74.8C113.783 75 110.483 75.3 107.083 75.5C103.883 75.7 100.683 75.8 97.4834 75.6C95.7834 75.5 93.9834 75.3 92.2834 75.1C90.7834 74.9 89.0834 74.4 87.4834 74.6C87.0834 74.6 86.9834 75.1 87.2834 75.3C88.5834 76.1 90.2834 76.3 91.7834 76.6C93.2834 76.8 94.7834 77 96.2834 77.2C99.6834 77.5 102.983 77.4 106.383 77.3C109.683 77.1 113.083 76.9 116.383 76.7C118.183 76.6 119.983 76.5 121.683 76.4C123.283 76.3 125.183 76.5 126.683 75.9C127.583 75.5 127.683 74.5 126.983 74.4Z" fill="black"/>
</g>
<defs>
<clipPath id="clip0_85_1010">
<rect width="135.7" height="82.6" fill="white" transform="translate(0.483337)"/>
</clipPath>
</defs>
</svg>
