<svg width="72" height="70" viewBox="0 0 72 70" fill="none" xmlns="http://www.w3.org/2000/svg">
<path d="M0.939546 69.8837C0.671107 69.8837 0.456356 69.7942 0.277396 69.6153C0.0984367 69.4363 0.00895691 69.2215 0.00895691 68.9531V58.7256C0.00895691 58.4571 0.0984367 58.2424 0.277396 58.0634C0.456356 57.8845 0.680055 57.795 0.939546 57.795H4.25924C4.71559 57.795 5.14509 57.8845 5.54775 58.0545C5.95041 58.2245 6.29938 58.4661 6.59467 58.7614C6.88995 59.0566 7.13154 59.4146 7.30156 59.8172C7.47157 60.2199 7.56105 60.6494 7.56105 61.1057C7.56105 61.571 7.47157 62.0005 7.29261 62.4032C7.11365 62.8058 6.87205 63.1548 6.55887 63.459C7.00627 63.7901 7.36419 64.1928 7.63263 64.6939C7.90107 65.186 8.03529 65.7318 8.03529 66.3313C8.03529 66.8324 7.93686 67.2977 7.74895 67.7362C7.56105 68.1657 7.30156 68.5415 6.97048 68.8547C6.63941 69.1768 6.25464 69.4184 5.80724 69.6063C5.35985 69.7853 4.89455 69.8837 4.38452 69.8837H0.939546ZM1.88803 59.683V62.7611H4.20556C4.41136 62.7522 4.60822 62.7074 4.78718 62.609C4.96614 62.5106 5.11825 62.3942 5.25247 62.2421C5.38669 62.09 5.48512 61.9289 5.56565 61.741C5.63723 61.5531 5.68197 61.3652 5.68197 61.1684C5.68197 60.9715 5.63723 60.7747 5.5567 60.5957C5.47617 60.4167 5.36879 60.2557 5.22563 60.1215C5.09141 59.9872 4.93034 59.8709 4.74244 59.7993C4.56348 59.7188 4.36662 59.683 4.16082 59.683H1.88803ZM1.88803 64.4612V68.0046H4.32188C4.57242 68.0046 4.81402 67.9509 5.03772 67.8525C5.26142 67.7541 5.45827 67.6199 5.61934 67.4588C5.7804 67.2977 5.91462 67.1009 6.01305 66.8861C6.11148 66.6714 6.15622 66.4387 6.15622 66.2061C6.15622 65.9645 6.11148 65.7318 6.01305 65.5171C5.91462 65.3023 5.7804 65.1234 5.61934 64.9623C5.44933 64.8102 5.26142 64.6849 5.03772 64.5954C4.81402 64.506 4.57242 64.4612 4.32188 64.4612H1.88803Z" fill="black"/>
<path d="M17.7259 63.8528C17.7259 64.5418 17.8512 65.195 18.1107 65.7945C18.3702 66.394 18.7192 66.9219 19.1666 67.3693C19.614 67.8167 20.1329 68.1657 20.7325 68.4252C21.332 68.6847 21.9762 68.8099 22.6742 68.8099C23.2379 68.8099 23.7569 68.7294 24.2311 68.5773C24.7054 68.4162 25.1349 68.1925 25.5107 67.9062C25.8865 67.6109 26.1997 67.2619 26.4502 66.8503C26.7008 66.4387 26.8887 65.9734 27.0139 65.4634H24.1058C23.9448 65.4634 23.8016 65.4097 23.6942 65.2844C23.5779 65.1681 23.5242 65.0249 23.5242 64.8639C23.5242 64.7028 23.5779 64.5686 23.6942 64.4523C23.8106 64.336 23.9448 64.2733 24.1058 64.2733H27.685C27.864 64.2823 28.0072 64.336 28.1324 64.4433C28.2577 64.5507 28.3114 64.6939 28.3114 64.8639C28.2398 65.5976 28.0519 66.2687 27.7387 66.8951C27.4255 67.5214 27.0229 68.0673 26.5218 68.5236C26.0207 68.9799 25.448 69.3468 24.7859 69.6063C24.1327 69.8658 23.4169 70 22.6563 70C22.0926 70 21.5467 69.9284 21.0188 69.7853C20.4909 69.6421 20.0077 69.4363 19.5513 69.1679C19.095 68.8994 18.6834 68.5773 18.3165 68.2015C17.9496 67.8257 17.6275 67.4141 17.3591 66.9577C17.0906 66.5014 16.8938 66.0092 16.7417 65.4902C16.5985 64.9713 16.5269 64.4254 16.5269 63.8617C16.5269 63.3069 16.5985 62.7701 16.7417 62.2511C16.8848 61.7321 17.0817 61.24 17.3412 60.7836C17.6007 60.3273 17.9139 59.9067 18.2897 59.5309C18.6565 59.1551 19.0771 58.8329 19.5245 58.5556C19.9808 58.2871 20.464 58.0724 20.992 57.9292C21.5199 57.7771 22.0657 57.7055 22.6384 57.7055C23.4616 57.7055 24.249 57.8576 24.9917 58.1618C25.7344 58.4661 26.4144 58.9224 27.0229 59.5309C27.1482 59.6472 27.2108 59.7904 27.2108 59.9425C27.2108 60.1036 27.1482 60.2378 27.0318 60.3541C26.9155 60.4704 26.7813 60.5241 26.6202 60.5331C26.4592 60.5331 26.316 60.4794 26.1997 60.3541C25.7075 59.8709 25.1528 59.504 24.5443 59.2624C23.9269 59.0209 23.3005 58.8956 22.6652 58.8956C21.9941 58.8956 21.3678 59.0209 20.7683 59.2714C20.1687 59.5219 19.6498 59.8709 19.1934 60.3183C18.746 60.7657 18.3881 61.2847 18.1197 61.8932C17.8602 62.5016 17.7259 63.1548 17.7259 63.8528Z" fill="black"/>
<path d="M38.8342 69.3021C38.8342 69.4631 38.7716 69.6063 38.6553 69.7137C38.5389 69.83 38.3958 69.8837 38.2347 69.8837C38.0736 69.8837 37.9305 69.83 37.8141 69.7137C37.6978 69.5974 37.6352 69.4631 37.6352 69.3021V58.3855C37.6352 58.2155 37.6889 58.0724 37.8141 57.965C37.9305 57.8576 38.0736 57.8039 38.2347 57.8039C38.3958 57.8039 38.5389 57.8576 38.6553 57.965C38.7716 58.0724 38.8342 58.2155 38.8342 58.3855V69.3021Z" fill="black"/>
<path d="M54.869 57.8039C55.03 57.8039 55.1732 57.8576 55.2806 57.9739C55.3969 58.0903 55.4506 58.2245 55.4506 58.3945C55.4506 58.5645 55.3969 58.7077 55.2806 58.815C55.1643 58.9314 55.03 58.9851 54.869 58.9851H50.0192V63.2264H53.5357C53.6968 63.2264 53.84 63.289 53.9563 63.4054C54.0726 63.5217 54.1353 63.6648 54.1353 63.8259C54.1353 63.987 54.0726 64.1212 53.9563 64.2286C53.84 64.3359 53.6968 64.3896 53.5357 64.3896H50.0192V69.2931C50.0192 69.4631 49.9566 69.6063 49.8402 69.7137C49.7239 69.8211 49.5807 69.8747 49.4197 69.8747C49.2497 69.8747 49.1065 69.8211 48.9991 69.7047C48.8828 69.5884 48.8291 69.4542 48.8291 69.2931V58.3766C48.8291 58.314 48.8381 58.2513 48.8649 58.1797C48.8828 58.1082 48.9186 58.0455 48.9723 57.9918C49.017 57.9381 49.0796 57.8934 49.1602 57.8576C49.2318 57.8218 49.3302 57.8039 49.4376 57.8039H54.869Z" fill="black"/>
<path d="M67.9867 58.9851V69.2931C67.9867 69.4542 67.933 69.5974 67.8167 69.7137C67.7004 69.83 67.5662 69.8926 67.3961 69.8926C67.2351 69.8926 67.1009 69.8389 66.9935 69.7137C66.8861 69.5974 66.8324 69.4542 66.8324 69.2931V58.9851H63.8975C63.7364 58.9851 63.5933 58.9314 63.4859 58.8061C63.3696 58.6898 63.3159 58.5466 63.3159 58.3855C63.3159 58.2245 63.3696 58.0813 63.4859 57.9739C63.6022 57.8576 63.7364 57.8039 63.8975 57.8039H71.0111C71.1722 57.8039 71.3154 57.8666 71.4227 57.9829C71.5391 58.0992 71.5927 58.2424 71.5927 58.4034C71.5927 58.5735 71.5391 58.7166 71.4227 58.824C71.3064 58.9314 71.1722 58.9851 71.0111 58.9851H67.9867Z" fill="black"/>
<path d="M58.9851 34.8971C55.9517 42.4313 49.4018 48.1848 41.3754 50.1087C41.3754 50.1087 41.3754 50.1087 41.3665 50.1087C39.7827 50.4845 38.1452 50.7171 36.4719 50.7887C36.123 50.8066 35.774 50.8066 35.425 50.8066C25.1975 50.8066 16.3837 44.7667 12.3572 36.0603C12.2587 35.8456 12.1603 35.6219 12.0619 35.3982C11.7845 34.745 11.5339 34.0828 11.3013 33.4028C11.1223 32.857 10.9613 32.3022 10.8181 31.7474C10.9613 31.7385 11.0955 31.7295 11.2297 31.7206C11.3729 32.2843 11.5429 32.8301 11.7219 33.3759C11.9456 34.056 12.205 34.7181 12.4914 35.3713C12.5898 35.595 12.6882 35.8187 12.7956 36.0335C14.0304 38.6642 15.7216 41.0444 17.7528 43.0755C21.4215 46.7353 26.2086 49.2675 31.5685 50.0997C31.5685 50.0997 31.5685 50.0997 31.5774 50.0997C32.8301 50.2966 34.1186 50.395 35.434 50.395C35.783 50.395 36.1319 50.386 36.4809 50.3771C42.9682 50.1087 48.8112 47.3706 53.1062 43.0755C55.4327 40.7491 57.3028 37.9573 58.5734 34.8613C58.7077 34.8703 58.8419 34.8792 58.9761 34.8881L58.9851 34.8971Z" fill="#A7D7F0"/>
<path d="M60.8194 25.4033C60.8194 26.2355 60.7836 27.0587 60.7031 27.864C60.6852 28.0877 60.6583 28.3203 60.6315 28.544C60.551 29.2241 60.4346 29.9041 60.3004 30.5663C60.1841 31.13 60.0499 31.6848 59.8978 32.2306C59.7635 32.2217 59.6204 32.2127 59.4772 32.2038C59.6293 31.6579 59.7635 31.1032 59.8888 30.5394C60.032 29.8773 60.1394 29.2062 60.2288 28.5172C60.2557 28.2935 60.2825 28.0698 60.3004 27.8371C60.3809 27.0318 60.4167 26.2176 60.4167 25.3943C60.4167 18.4865 57.616 12.2408 53.0973 7.71315C48.8023 3.41813 42.9592 0.680046 36.472 0.411607H36.463C36.114 0.393711 35.7651 0.384763 35.4161 0.384763C34.1097 0.384763 32.8301 0.483191 31.5774 0.680046C31.5774 0.680046 31.5774 0.680046 31.5685 0.680046H31.5595C26.1997 1.51221 21.4036 4.04448 17.7439 7.70421C13.2162 12.2319 10.4244 18.4776 10.4244 25.3854C10.4244 26.6202 10.5139 27.8282 10.6839 29.0183C10.5497 29.0272 10.4155 29.0362 10.2723 29.0451C10.1023 27.855 10.0128 26.6292 10.0128 25.3943C10.0128 11.3729 21.3857 0 35.4161 0C35.7651 0 36.114 0.00894797 36.463 0.0178959C38.1452 0.0894797 39.7827 0.322127 41.3755 0.697942C52.5336 3.38233 60.8194 13.4309 60.8194 25.4033Z" fill="#A7D7F0"/>
<path d="M61.0431 35.0134C57.2581 44.2835 48.1491 50.8155 37.5189 50.8155C37.1699 50.8155 36.8209 50.8066 36.4719 50.7976C34.7897 50.7261 33.1523 50.4934 31.5685 50.1176C31.5685 50.1176 31.5685 50.1176 31.5595 50.1176C23.9 48.2743 17.6007 42.9682 14.3973 35.953C14.2989 35.7293 14.2004 35.5145 14.111 35.2908C13.8336 34.6376 13.592 33.9755 13.3683 33.2954C13.1893 32.7496 13.0283 32.1948 12.894 31.64C13.0372 31.6311 13.1714 31.6221 13.3056 31.6132C13.4488 32.1769 13.6099 32.7227 13.7888 33.2686C14.0125 33.9486 14.2631 34.6108 14.5405 35.264C14.6389 35.4877 14.7373 35.7024 14.8357 35.9261C16.0795 38.6105 17.7796 41.0265 19.8466 43.0934C24.1416 47.3885 29.9847 50.1266 36.4719 50.395C36.8209 50.4129 37.1699 50.4129 37.5189 50.4129C38.8253 50.4129 40.1138 50.3145 41.3665 50.1176C41.3665 50.1176 41.3665 50.1176 41.3754 50.1176C46.7353 49.2854 51.5314 46.7532 55.2001 43.0934C57.4997 40.7938 59.3519 38.0468 60.6136 34.9955C60.7657 34.9955 60.9089 35.0045 61.0431 35.0134Z" fill="#A7D7F0"/>
<path d="M62.9221 25.4033C62.9221 26.2712 62.8774 27.1303 62.7969 27.9714C62.779 28.1951 62.7521 28.4277 62.7253 28.6514C62.6358 29.3315 62.5195 30.0115 62.3853 30.6737C62.2689 31.2374 62.1258 31.7921 61.9737 32.338C61.9468 32.338 61.911 32.338 61.8842 32.338C61.7768 32.329 61.6694 32.329 61.5531 32.3201C61.7142 31.7743 61.8484 31.2195 61.9737 30.6558C62.1168 29.9936 62.2332 29.3136 62.3226 28.6335C62.3495 28.4098 62.3763 28.1861 62.4032 27.9535C62.4927 27.1124 62.5285 26.2623 62.5285 25.4033C62.5285 18.4955 59.7277 12.2498 55.209 7.7221C51.5403 4.06238 46.7532 1.5301 41.3933 0.697941C40.1317 0.501085 38.8432 0.402658 37.5368 0.402658C37.1878 0.402658 36.8388 0.411606 36.4898 0.429502C36.4898 0.429502 36.4898 0.429502 36.4809 0.429502C29.9936 0.697941 24.1506 3.43602 19.8556 7.73105C15.3279 12.2587 12.5361 18.5044 12.5361 25.4122C12.5361 26.6023 12.6166 27.7745 12.7777 28.9199C12.6435 28.9288 12.5093 28.9377 12.3661 28.9467C12.205 27.7924 12.1245 26.6113 12.1245 25.4122C12.1245 13.4309 20.4103 3.39128 31.5685 0.706889H31.5774C31.5774 0.706889 31.5774 0.706889 31.5863 0.706889C33.1612 0.331074 34.7987 0.0984267 36.4809 0.0268429C36.8299 0.00894693 37.1788 0.00894693 37.5278 0.00894693C51.5493 -1.04681e-06 62.9221 11.3729 62.9221 25.4033Z" fill="#A7D7F0"/>
<path d="M68.4968 28.9467L68.4878 28.9288C68.4431 28.8125 68.3894 28.7051 68.3178 28.5888C68.2104 28.4277 68.0494 28.2666 67.8525 28.1593C67.6556 28.0519 67.4319 28.0072 67.244 28.0072C67.1635 28.0072 67.083 28.0161 67.0114 28.0251H67.0024H66.9935C66.8414 28.0519 66.6893 28.0966 66.555 28.1772C66.4208 28.2488 66.3045 28.3382 66.2061 28.4456C65.9018 28.7767 65.8839 29.2867 66.1971 29.6088C66.3045 29.7162 66.4208 29.7878 66.555 29.8325C66.5193 29.8594 66.4835 29.8862 66.4387 29.922C66.2598 30.0473 66.0182 30.1815 65.7229 30.3157C65.4723 30.4231 65.1234 30.5215 64.6939 30.5931C64.2644 30.6558 63.7454 30.6915 63.1459 30.6915C63.0832 30.6915 62.9401 30.6915 62.7432 30.6826C62.1347 30.6558 60.9715 30.5931 59.2535 30.5036C53.8668 30.1905 49.9476 30.0294 47.478 30.0294C44.9009 30.0294 42.6103 30.2531 40.597 30.7005C40.588 30.7005 40.5791 30.7005 40.5701 30.7094C40.3106 30.7631 40.0601 30.8258 39.8185 30.8974C39.8095 30.8974 39.7917 30.9063 39.7827 30.9063H39.7738C39.738 30.9152 39.7111 30.9242 39.6753 30.9421C39.6664 30.9421 39.6664 30.9421 39.6574 30.951C38.9326 31.1747 38.2973 31.3805 37.7694 31.5863C37.6978 31.6132 37.6262 31.64 37.5547 31.6758C35.6845 32.4275 34.2529 33.2954 33.2596 34.2797C32.2754 35.264 31.7743 36.293 31.7743 37.3846C31.7743 37.7694 31.9174 38.1005 32.2127 38.3958C32.508 38.6821 32.9196 38.8253 33.4475 38.8253C35.4698 38.8253 37.3668 37.671 39.1563 35.3713C39.5053 34.9239 39.8274 34.4408 40.1227 33.9218C40.3643 33.5102 40.5791 33.0717 40.7759 32.6064C40.8117 32.5259 40.8386 32.4454 40.8744 32.3648C42.7534 31.9353 44.9546 31.7116 47.469 31.7116C49.876 31.7116 53.7773 31.8727 59.1461 32.1859C60.2915 32.2485 61.1952 32.3022 61.8484 32.329C62.1795 32.3469 62.4479 32.3559 62.6537 32.3648C62.8685 32.3738 63.0116 32.3738 63.119 32.3738C63.7812 32.3738 64.3807 32.338 64.9176 32.2485C65.4544 32.168 65.9376 32.0427 66.3671 31.8548C66.7519 31.6848 67.0919 31.5058 67.3872 31.2911C67.6825 31.0763 67.942 30.8347 68.1478 30.5484L68.1567 30.5394C68.2641 30.3784 68.3625 30.2084 68.4341 30.0205C68.5057 29.8325 68.5504 29.6357 68.5504 29.412C68.5773 29.2688 68.5504 29.0988 68.4968 28.9467ZM36.3109 35.953C35.3624 36.7583 34.4139 37.1609 33.4654 37.1609C33.5549 36.4809 34.0113 35.8008 34.8345 35.1029C35.6577 34.4139 36.7762 33.7786 38.1721 33.2238C38.1989 33.2059 38.2884 33.1791 38.4226 33.1254C38.5658 33.0717 38.6732 33.0359 38.7447 33.0001C38.0826 34.1634 37.2683 35.1476 36.3109 35.953Z" fill="black"/>
<path d="M35.944 30.3873C37.3757 29.063 38.4405 28.3919 39.1564 28.3919C39.2637 28.3919 39.3353 28.4009 39.3979 28.4188C39.4606 28.4367 39.5322 28.4725 39.6216 28.5261C39.7111 28.5888 39.7827 28.6962 39.8364 28.8662C39.8811 29.0272 39.908 29.2241 39.908 29.4657C40.4359 29.3404 40.9817 29.2241 41.5544 29.1257C41.5007 28.4546 41.286 27.8998 40.9191 27.4792C40.4807 26.9781 39.899 26.7276 39.1564 26.7276C37.5815 26.7276 35.3893 28.2845 32.5885 31.3984C31.8906 32.1948 31.4164 32.7585 31.1479 33.0807C31.3716 32.5348 31.7116 31.7027 32.1859 30.5842C34.6913 28.5082 36.9373 26.2444 38.9237 23.8016C40.9102 21.3588 41.8676 19.095 43.1471 17.019C44.4715 14.8805 45.5363 12.8403 46.3326 10.9076C47.129 8.96587 47.3795 7.60578 47.0843 6.83625C46.9948 6.55886 46.8337 6.32622 46.6011 6.14726C46.3684 5.9683 46.1 5.88777 45.8047 5.90566C44.9457 5.90566 43.6661 6.97047 41.9571 9.09114C40.4091 11.0239 38.7 13.5383 36.8209 16.6343C34.4229 20.6161 32.9465 24.759 31.0495 29.0541C28.893 29.8683 26.2981 30.4589 23.2469 30.8079C20.5535 31.1211 16.1601 31.4432 10.1112 31.7743C8.82272 31.8458 7.80265 31.9085 7.05997 31.9532C6.6931 31.9801 6.38887 31.998 6.14727 32.0159C5.90568 32.0337 5.74461 32.0516 5.62829 32.0606C4.88561 32.1411 4.23241 32.2664 3.64184 32.4275C3.05127 32.5885 2.54124 32.7854 2.09384 33.0449C1.69118 33.2775 1.34221 33.5281 1.03798 33.7965C0.742697 34.0649 0.492154 34.3602 0.304246 34.7002L0.295298 34.7092C0.205819 34.8703 0.134235 35.0403 0.080547 35.2192C0.0268592 35.3982 1.52588e-05 35.5771 1.52588e-05 35.774C1.52588e-05 36.0066 0.0447551 36.2482 0.152131 36.463L0.161079 36.4809C0.214767 36.5883 0.277402 36.6867 0.357934 36.7851C0.474258 36.9283 0.626374 37.0625 0.814281 37.1609C1.00219 37.2504 1.20799 37.2952 1.40485 37.2952C1.54801 37.2952 1.69118 37.2683 1.81645 37.2415H1.8254H1.83435C1.98647 37.1967 2.13858 37.1341 2.28175 37.0357C2.41597 36.9462 2.53229 36.8299 2.62177 36.6956C2.87232 36.3467 2.83652 35.8635 2.5144 35.5771C2.33544 35.4161 2.11174 35.3445 1.89699 35.3534C1.96857 35.264 2.0491 35.1745 2.15648 35.0761C2.34438 34.906 2.60388 34.7181 2.926 34.5302C3.20339 34.3692 3.58815 34.2081 4.07134 34.0828C4.55453 33.9486 5.13615 33.8412 5.80725 33.7697C5.87883 33.7607 6.0399 33.7518 6.2636 33.7339C6.94364 33.6802 8.259 33.5996 10.1918 33.4923C16.2674 33.1612 20.6698 32.8301 23.4258 32.5169C25.9223 32.2306 28.1503 31.7922 30.1278 31.1837C29.1257 33.5817 28.2488 35.9888 27.515 38.4047C27.4077 38.7716 27.5061 39.0758 27.8014 39.3084C27.8193 39.3263 27.8282 39.3263 27.8461 39.3263C27.864 39.3263 27.864 39.3353 27.864 39.3532L27.8909 39.3711C27.9087 39.3711 27.9087 39.38 27.9087 39.389H27.9266C27.9445 39.389 27.9535 39.389 27.9535 39.3979C27.9535 39.4069 27.9624 39.4069 27.9714 39.4069H27.9893C28.1861 39.4964 28.383 39.5053 28.5888 39.4248C28.7946 39.3532 28.9467 39.219 29.0541 39.0221C29.6268 37.9036 30.5663 36.5167 31.8548 34.8613C33.1612 33.2059 34.5213 31.7206 35.944 30.3873ZM38.0379 17.8691C39.6932 15.0952 41.1965 12.8224 42.5655 11.0418C43.9256 9.26115 44.9278 8.16055 45.5631 7.73105C45.5184 8.34846 45.1783 9.40432 44.543 10.8807C43.9077 12.3661 42.9682 14.102 41.7334 16.0885C39.2279 20.1329 37.0715 23.6942 33.9128 26.7723C35.2819 23.909 36.2035 20.9383 38.0379 17.8691Z" fill="black"/>
</svg>
