<svg width="16" height="17" viewBox="0 0 16 17" fill="none" xmlns="http://www.w3.org/2000/svg">
<g clip-path="url(#clip0_20_1060)">
<path d="M8 2.04072C10.1375 2.04072 10.3906 2.0501 11.2313 2.0876C12.0125 2.12197 12.4344 2.25322 12.7156 2.3626C13.0875 2.50635 13.3563 2.68135 13.6344 2.95947C13.9156 3.24072 14.0875 3.50635 14.2313 3.87822C14.3406 4.15947 14.4719 4.58447 14.5063 5.3626C14.5438 6.20635 14.5531 6.45947 14.5531 8.59385C14.5531 10.7313 14.5438 10.9845 14.5063 11.8251C14.4719 12.6063 14.3406 13.0282 14.2313 13.3095C14.0875 13.6813 13.9125 13.9501 13.6344 14.2282C13.3531 14.5095 13.0875 14.6813 12.7156 14.8251C12.4344 14.9345 12.0094 15.0657 11.2313 15.1001C10.3875 15.1376 10.1344 15.147 8 15.147C5.8625 15.147 5.60938 15.1376 4.76875 15.1001C3.9875 15.0657 3.56563 14.9345 3.28438 14.8251C2.9125 14.6813 2.64375 14.5063 2.36563 14.2282C2.08438 13.947 1.9125 13.6813 1.76875 13.3095C1.65938 13.0282 1.52813 12.6032 1.49375 11.8251C1.45625 10.9813 1.44688 10.7282 1.44688 8.59385C1.44688 6.45635 1.45625 6.20322 1.49375 5.3626C1.52813 4.58135 1.65938 4.15947 1.76875 3.87822C1.9125 3.50635 2.0875 3.2376 2.36563 2.95947C2.64688 2.67822 2.9125 2.50635 3.28438 2.3626C3.56563 2.25322 3.99063 2.12197 4.76875 2.0876C5.60938 2.0501 5.8625 2.04072 8 2.04072ZM8 0.600098C5.82813 0.600098 5.55625 0.609473 4.70313 0.646973C3.85313 0.684473 3.26875 0.821973 2.7625 1.01885C2.23438 1.2251 1.7875 1.49697 1.34375 1.94385C0.896875 2.3876 0.625 2.83447 0.41875 3.35947C0.221875 3.86885 0.084375 4.4501 0.046875 5.3001C0.009375 6.15635 0 6.42822 0 8.6001C0 10.772 0.009375 11.0438 0.046875 11.897C0.084375 12.747 0.221875 13.3313 0.41875 13.8376C0.625 14.3657 0.896875 14.8126 1.34375 15.2563C1.7875 15.7001 2.23438 15.9751 2.75938 16.1782C3.26875 16.3751 3.85 16.5126 4.7 16.5501C5.55313 16.5876 5.825 16.597 7.99688 16.597C10.1688 16.597 10.4406 16.5876 11.2938 16.5501C12.1438 16.5126 12.7281 16.3751 13.2344 16.1782C13.7594 15.9751 14.2063 15.7001 14.65 15.2563C15.0938 14.8126 15.3688 14.3657 15.5719 13.8407C15.7688 13.3313 15.9063 12.7501 15.9438 11.9001C15.9813 11.047 15.9906 10.7751 15.9906 8.60322C15.9906 6.43135 15.9813 6.15947 15.9438 5.30635C15.9063 4.45635 15.7688 3.87197 15.5719 3.36572C15.375 2.83447 15.1031 2.3876 14.6563 1.94385C14.2125 1.5001 13.7656 1.2251 13.2406 1.02197C12.7313 0.825098 12.15 0.687598 11.3 0.650098C10.4438 0.609473 10.1719 0.600098 8 0.600098Z" fill="black"/>
<path d="M8 4.49072C5.73125 4.49072 3.89062 6.33135 3.89062 8.6001C3.89062 10.8688 5.73125 12.7095 8 12.7095C10.2688 12.7095 12.1094 10.8688 12.1094 8.6001C12.1094 6.33135 10.2688 4.49072 8 4.49072ZM8 11.2657C6.52813 11.2657 5.33437 10.072 5.33437 8.6001C5.33437 7.12822 6.52813 5.93447 8 5.93447C9.47188 5.93447 10.6656 7.12822 10.6656 8.6001C10.6656 10.072 9.47188 11.2657 8 11.2657Z" fill="black"/>
<path d="M13.2312 4.32803C13.2312 4.85928 12.8 5.2874 12.2719 5.2874C11.7406 5.2874 11.3125 4.85615 11.3125 4.32803C11.3125 3.79678 11.7438 3.36865 12.2719 3.36865C12.8 3.36865 13.2312 3.7999 13.2312 4.32803Z" fill="black"/>
</g>
<defs>
<clipPath id="clip0_20_1060">
<rect width="16" height="16" fill="white" transform="translate(0 0.600098)"/>
</clipPath>
</defs>
</svg>
