<svg width="16" height="17" viewBox="0 0 16 17" fill="none" xmlns="http://www.w3.org/2000/svg">
<g clip-path="url(#clip0_20_1059)">
<path d="M14.8156 0.600098H1.18125C0.528125 0.600098 0 1.11572 0 1.75322V15.4438C0 16.0813 0.528125 16.6001 1.18125 16.6001H14.8156C15.4688 16.6001 16 16.0813 16 15.447V1.75322C16 1.11572 15.4688 0.600098 14.8156 0.600098ZM4.74687 14.2345H2.37188V6.59697H4.74687V14.2345ZM3.55938 5.55635C2.79688 5.55635 2.18125 4.94072 2.18125 4.18135C2.18125 3.42197 2.79688 2.80635 3.55938 2.80635C4.31875 2.80635 4.93437 3.42197 4.93437 4.18135C4.93437 4.9376 4.31875 5.55635 3.55938 5.55635ZM13.6344 14.2345H11.2625V10.522C11.2625 9.6376 11.2469 8.49697 10.0281 8.49697C8.79375 8.49697 8.60625 9.4626 8.60625 10.4595V14.2345H6.2375V6.59697H8.5125V7.64072H8.54375C8.85938 7.04072 9.63438 6.40635 10.7875 6.40635C13.1906 6.40635 13.6344 7.9876 13.6344 10.0438V14.2345Z" fill="black"/>
</g>
<defs>
<clipPath id="clip0_20_1059">
<rect width="16" height="16" fill="white" transform="translate(0 0.600098)"/>
</clipPath>
</defs>
</svg>
