<svg width="21" height="20" viewBox="0 0 21 20" fill="none" xmlns="http://www.w3.org/2000/svg">
<g clip-path="url(#clip0_6_378)">
<path d="M20.3484 18.5781L15.3743 13.6039C16.7298 11.9461 17.3962 9.83067 17.2358 7.69522C17.0754 5.55978 16.1003 3.5677 14.5122 2.13102C12.9242 0.694348 10.8448 -0.0770009 8.70396 -0.0234744C6.56317 0.0300521 4.52484 0.904358 3.0106 2.4186C1.49636 3.93284 0.622055 5.97117 0.568528 8.11196C0.515002 10.2527 1.28635 12.3322 2.72303 13.9202C4.1597 15.5083 6.15178 16.4833 8.28723 16.6438C10.4227 16.8042 12.5381 16.1378 14.1959 14.7823L19.1701 19.7564C19.3273 19.9082 19.5378 19.9922 19.7563 19.9903C19.9748 19.9884 20.1838 19.9008 20.3383 19.7463C20.4928 19.5918 20.5804 19.3828 20.5823 19.1643C20.5842 18.9458 20.5002 18.7353 20.3484 18.5781ZM8.92593 15.0006C7.60738 15.0006 6.31845 14.6096 5.22212 13.8771C4.1258 13.1445 3.27131 12.1033 2.76673 10.8851C2.26214 9.66697 2.13012 8.32653 2.38736 7.03332C2.64459 5.74011 3.27953 4.55223 4.21188 3.61988C5.14423 2.68753 6.33212 2.05259 7.62532 1.79535C8.91853 1.53812 10.259 1.67014 11.4771 2.17473C12.6953 2.67931 13.7365 3.53379 14.4691 4.63012C15.2016 5.72645 15.5926 7.01538 15.5926 8.33392C15.5906 10.1014 14.8876 11.796 13.6378 13.0458C12.388 14.2956 10.6934 14.9986 8.92593 15.0006Z" fill="black"/>
</g>
<defs>
<clipPath id="clip0_6_378">
<rect width="20" height="20" fill="white" transform="translate(0.592773)"/>
</clipPath>
</defs>
</svg>
