<svg width="21" height="20" viewBox="0 0 21 20" fill="none" xmlns="http://www.w3.org/2000/svg">
<g clip-path="url(#clip0_6_371)">
<path d="M10.5928 9.99995C11.5817 9.99995 12.5484 9.7067 13.3706 9.1573C14.1929 8.60789 14.8337 7.827 15.2122 6.91337C15.5906 5.99974 15.6896 4.9944 15.4967 4.0245C15.3038 3.05459 14.8276 2.16368 14.1283 1.46441C13.429 0.765152 12.5381 0.288949 11.5682 0.0960224C10.5983 -0.0969037 9.59299 0.00211302 8.67936 0.380551C7.76573 0.758989 6.98483 1.39985 6.43543 2.2221C5.88602 3.04434 5.59277 4.01104 5.59277 4.99995C5.5941 6.32562 6.12131 7.59663 7.0587 8.53402C7.9961 9.47142 9.2671 9.99862 10.5928 9.99995ZM10.5928 1.66662C11.252 1.66662 11.8965 1.86211 12.4447 2.22838C12.9928 2.59465 13.4201 3.11525 13.6724 3.72434C13.9247 4.33342 13.9907 5.00365 13.8621 5.65025C13.7334 6.29685 13.416 6.8908 12.9498 7.35697C12.4836 7.82315 11.8897 8.14062 11.2431 8.26923C10.5965 8.39785 9.92625 8.33184 9.31716 8.07955C8.70807 7.82726 8.18748 7.40001 7.82121 6.85185C7.45494 6.30369 7.25944 5.65922 7.25944 4.99995C7.25944 4.11589 7.61063 3.26805 8.23575 2.64293C8.86087 2.0178 9.70872 1.66662 10.5928 1.66662Z" fill="black"/>
<path d="M10.5928 11.6672C8.60433 11.6694 6.69795 12.4603 5.29191 13.8663C3.88586 15.2724 3.09498 17.1787 3.09277 19.1672C3.09277 19.3882 3.18057 19.6002 3.33685 19.7564C3.49313 19.9127 3.70509 20.0005 3.92611 20.0005C4.14712 20.0005 4.35908 19.9127 4.51536 19.7564C4.67164 19.6002 4.75944 19.3882 4.75944 19.1672C4.75944 17.6201 5.37402 16.1363 6.46798 15.0424C7.56195 13.9484 9.04568 13.3338 10.5928 13.3338C12.1399 13.3338 13.6236 13.9484 14.7176 15.0424C15.8115 16.1363 16.4261 17.6201 16.4261 19.1672C16.4261 19.3882 16.5139 19.6002 16.6702 19.7564C16.8265 19.9127 17.0384 20.0005 17.2594 20.0005C17.4805 20.0005 17.6924 19.9127 17.8487 19.7564C18.005 19.6002 18.0928 19.3882 18.0928 19.1672C18.0906 17.1787 17.2997 15.2724 15.8936 13.8663C14.4876 12.4603 12.5812 11.6694 10.5928 11.6672Z" fill="black"/>
</g>
<defs>
<clipPath id="clip0_6_371">
<rect width="20" height="20" fill="white" transform="translate(0.592773)"/>
</clipPath>
</defs>
</svg>
